<svg xmlns="http://www.w3.org/2000/svg" xmlns:xlink="http://www.w3.org/1999/xlink" viewBox="0 0 500 500"><defs><clipPath id="freepik--clip-path--inject-16"><rect x="100.87" y="214.45" width="93.53" height="144.42" transform="translate(295.27 573.32) rotate(180)" style="fill:#92BCE3;stroke:#263238;stroke-linecap:round;stroke-linejoin:round"></rect></clipPath><clipPath id="freepik--clip-path-2--inject-16"><rect x="80.16" y="214.45" width="20.7" height="144.42" transform="translate(181.03 573.32) rotate(180)" style="fill:#92BCE3;stroke:#263238;stroke-linecap:round;stroke-linejoin:round"></rect></clipPath><clipPath id="freepik--clip-path-3--inject-16"><rect x="107.91" y="225.17" width="78.89" height="35.07" transform="translate(294.71 485.41) rotate(180)" style="fill:#92BCE3;stroke:#263238;stroke-linecap:round;stroke-linejoin:round"></rect></clipPath><clipPath id="freepik--clip-path-4--inject-16"><rect x="107.91" y="264.07" width="78.89" height="35.07" transform="translate(294.71 563.21) rotate(180)" style="fill:#92BCE3;stroke:#263238;stroke-linecap:round;stroke-linejoin:round"></rect></clipPath><clipPath id="freepik--clip-path-5--inject-16"><rect x="107.91" y="302.97" width="78.89" height="35.07" transform="translate(294.71 641.01) rotate(180)" style="fill:#92BCE3;stroke:#263238;stroke-linecap:round;stroke-linejoin:round"></rect></clipPath><clipPath id="freepik--clip-path-6--inject-16"><path d="M243.92,129.22s-.77,5.75-3.78,9.21c0,0,12.66,18.53,27.24,4.07l-3.32-10.93Z" style="fill:#fff;stroke:#263238;stroke-linecap:round;stroke-linejoin:round"></path></clipPath><clipPath id="freepik--clip-path-7--inject-16"><path d="M365.78,355l5.2,2.93a9.29,9.29,0,0,0,6.73.92c10.37-2.54,40.68-9.12,48.16-1.48,9.06,9.26,3.51,19.59-9.29,24.93s-46.72,11.95-46.72,11.95L367.44,391l-6,1.45s-3.33,3.43-10.66,4.37c0,0-8-10.26-4.26-21.5,0,0,1.49-2.39,10.11-1.5l6.58-.17-8.5-9v-6.95Z" style="fill:#92BCE3;stroke:#263238;stroke-linecap:round;stroke-linejoin:round"></path></clipPath><clipPath id="freepik--clip-path-8--inject-16"><path d="M318.42,350.77s-6.53,14.1-3.26,24.35,14,16.33,29.29,12.27l48.68,7.35s5.33-5.05,3.55-18.61l-38.21-13.2a23.92,23.92,0,0,0-1.8-10.23Z" style="fill:#92BCE3;stroke:#263238;stroke-linecap:round;stroke-linejoin:round"></path></clipPath><clipPath id="freepik--clip-path-9--inject-16"><path d="M351,266s-2.42,12-7.25,16.43a2.83,2.83,0,0,0,0,4.11c5.13,4.92,16.8,14.2,23.73,4.63,0,0-10.69-14.21-10.85-20.46Z" style="fill:#fff;stroke:#263238;stroke-linecap:round;stroke-linejoin:round"></path></clipPath></defs><g id="freepik--Shadow--inject-16"><ellipse cx="373.06" cy="401.89" rx="87.71" ry="19.73" style="fill:#92BCE3"></ellipse><ellipse cx="264.55" cy="382.88" rx="78.97" ry="17.76" style="fill:#92BCE3"></ellipse><path d="M204.87,388H47.07a10.39,10.39,0,0,1-10.39-10.39H204.87Z" style="fill:#92BCE3"></path></g><g id="freepik--Floor--inject-16"><line x1="47.22" y1="358.87" x2="460.78" y2="358.87" style="fill:none;stroke:#263238;stroke-linecap:round;stroke-linejoin:round"></line></g><g id="freepik--Shelf--inject-16"><rect x="100.87" y="214.45" width="93.53" height="144.42" transform="translate(295.27 573.32) rotate(180)" style="fill:#92BCE3"></rect><g style="clip-path:url(#freepik--clip-path--inject-16)"><rect x="100.87" y="214.45" width="93.53" height="144.42" transform="translate(295.27 573.32) rotate(180)" style="fill:#fff;opacity:0.7000000000000001"></rect></g><rect x="100.87" y="214.45" width="93.53" height="144.42" transform="translate(295.27 573.32) rotate(180)" style="fill:none;stroke:#263238;stroke-linecap:round;stroke-linejoin:round"></rect><rect x="80.16" y="214.45" width="20.7" height="144.42" transform="translate(181.03 573.32) rotate(180)" style="fill:#92BCE3"></rect><g style="clip-path:url(#freepik--clip-path-2--inject-16)"><rect x="80.16" y="214.45" width="20.7" height="144.42" transform="translate(181.03 573.32) rotate(180)" style="fill:#fff;opacity:0.30000000000000004"></rect></g><rect x="80.16" y="214.45" width="20.7" height="144.42" transform="translate(181.03 573.32) rotate(180)" style="fill:none;stroke:#263238;stroke-linecap:round;stroke-linejoin:round"></rect><rect x="107.91" y="225.17" width="78.89" height="35.07" transform="translate(294.71 485.41) rotate(180)" style="fill:#92BCE3"></rect><g style="clip-path:url(#freepik--clip-path-3--inject-16)"><rect x="107.91" y="225.17" width="78.89" height="35.07" transform="translate(294.71 485.41) rotate(180)" style="fill:#fff;opacity:0.5"></rect></g><rect x="107.91" y="225.17" width="78.89" height="35.07" transform="translate(294.71 485.41) rotate(180)" style="fill:none;stroke:#263238;stroke-linecap:round;stroke-linejoin:round"></rect><rect x="107.91" y="264.07" width="78.89" height="35.07" transform="translate(294.71 563.21) rotate(180)" style="fill:#92BCE3"></rect><g style="clip-path:url(#freepik--clip-path-4--inject-16)"><rect x="107.91" y="264.07" width="78.89" height="35.07" transform="translate(294.71 563.21) rotate(180)" style="fill:#fff;opacity:0.5"></rect></g><rect x="107.91" y="264.07" width="78.89" height="35.07" transform="translate(294.71 563.21) rotate(180)" style="fill:none;stroke:#263238;stroke-linecap:round;stroke-linejoin:round"></rect><rect x="107.91" y="302.97" width="78.89" height="35.07" transform="translate(294.71 641.01) rotate(180)" style="fill:#92BCE3"></rect><g style="clip-path:url(#freepik--clip-path-5--inject-16)"><rect x="107.91" y="302.97" width="78.89" height="35.07" transform="translate(294.71 641.01) rotate(180)" style="fill:#fff;opacity:0.5"></rect></g><rect x="107.91" y="302.97" width="78.89" height="35.07" transform="translate(294.71 641.01) rotate(180)" style="fill:none;stroke:#263238;stroke-linecap:round;stroke-linejoin:round"></rect><path d="M170.4,243.63l-5.55-6.39H146.54l-6.85,6.21-10.43,1.25-9,4,.61,4.15a3.3,3.3,0,0,0,3.26,2.81h3.76a5.58,5.58,0,1,1,11.15,0h21.6a5.58,5.58,0,1,1,11.16,0h.43l4.93-3.22v-5.19a3.59,3.59,0,0,0-3.59-3.59Z" style="fill:#fff;stroke:#263238;stroke-linecap:round;stroke-linejoin:round"></path><polygon points="150.8 244.29 152.19 238.49 145.17 238.49 139.69 243.46 139.06 244.29 150.8 244.29" style="fill:#92BCE3;stroke:#263238;stroke-linecap:round;stroke-linejoin:round"></polygon><polygon points="163.54 238.49 154.3 238.49 152.91 244.29 165.53 244.29 166.78 242.42 163.54 238.49" style="fill:#92BCE3;stroke:#263238;stroke-linecap:round;stroke-linejoin:round"></polygon><path d="M138,255.63a4.46,4.46,0,1,1-4.46-4.46A4.46,4.46,0,0,1,138,255.63Z" style="fill:#263238;stroke:#263238;stroke-linecap:round;stroke-linejoin:round"></path><path d="M135.27,255.63a1.79,1.79,0,1,1-1.78-1.79A1.78,1.78,0,0,1,135.27,255.63Z" style="fill:#92BCE3;stroke:#263238;stroke-linecap:round;stroke-linejoin:round"></path><path d="M170.7,255.63a4.46,4.46,0,1,1-4.46-4.46A4.46,4.46,0,0,1,170.7,255.63Z" style="fill:#263238;stroke:#263238;stroke-linecap:round;stroke-linejoin:round"></path><path d="M168,255.63a1.79,1.79,0,1,1-1.78-1.79A1.78,1.78,0,0,1,168,255.63Z" style="fill:#92BCE3;stroke:#263238;stroke-linecap:round;stroke-linejoin:round"></path><path d="M120.28,248.67l.4,2.67,1.47-1.28a6.77,6.77,0,0,1,1.17-.81l.5-.29a7.14,7.14,0,0,0,2.93-3.15Z" style="fill:#92BCE3;stroke:#263238;stroke-linecap:round;stroke-linejoin:round"></path><path d="M175.35,323l-2.56,1.28-5.73-.18s-8.69-7-16.27-7H148a9,9,0,0,0-5.28,1.73l-7.25,5.3s-10.91-.37-13.31,5.36l-.92,5H128v-.79a5,5,0,0,1,10,0v.79h19.13v-.79a5,5,0,0,1,10,0v.79h2.77l6.32-10.59A.61.61,0,0,0,175.35,323Z" style="fill:#fff;stroke:#263238;stroke-linecap:round;stroke-linejoin:round"></path><path d="M137,333.68a4,4,0,1,1-4-4A4,4,0,0,1,137,333.68Z" style="fill:#92BCE3;stroke:#263238;stroke-linecap:round;stroke-linejoin:round"></path><path d="M135.35,333.68a2.4,2.4,0,1,1-2.4-2.39A2.39,2.39,0,0,1,135.35,333.68Z" style="fill:#92BCE3;stroke:#263238;stroke-linecap:round;stroke-linejoin:round"></path><path d="M166.06,333.68a4,4,0,1,1-4-4A4,4,0,0,1,166.06,333.68Z" style="fill:#92BCE3;stroke:#263238;stroke-linecap:round;stroke-linejoin:round"></path><path d="M164.46,333.68a2.4,2.4,0,1,1-2.39-2.39A2.39,2.39,0,0,1,164.46,333.68Z" style="fill:#92BCE3;stroke:#263238;stroke-linecap:round;stroke-linejoin:round"></path><path d="M122.14,329.48l0,.21h1.46a2,2,0,0,0,1.19-.4l2.82-2.12a.77.77,0,0,0-.47-1.39h-1A7.43,7.43,0,0,0,122.14,329.48Z" style="fill:#92BCE3;stroke:#263238;stroke-linecap:round;stroke-linejoin:round"></path><path d="M149,325l18-.86s-8.69-7-16.27-7h-2.56A10.15,10.15,0,0,1,149,325Z" style="fill:#263238;stroke:#263238;stroke-linecap:round;stroke-linejoin:round"></path><path d="M146.85,325.08a7.7,7.7,0,0,0-.88-7.73,8.87,8.87,0,0,0-3.27,1.47l-7.25,5.3,10.85,1Z" style="fill:#263238;stroke:#263238;stroke-linecap:round;stroke-linejoin:round"></path><path d="M175.35,283.57l-2.56,1.29-5.73-.19s-8.69-7-16.27-7H148a9,9,0,0,0-5.28,1.72l-7.25,5.3s-10.91-.37-13.31,5.36l-.92,5H128v-.78a5,5,0,0,1,10,0V295h19.13v-.78a5,5,0,0,1,10,0V295h2.77l6.32-10.59A.61.61,0,0,0,175.35,283.57Z" style="fill:#92BCE3;stroke:#263238;stroke-linecap:round;stroke-linejoin:round"></path><path d="M137,294.24a4,4,0,1,1-4-4A4,4,0,0,1,137,294.24Z" style="fill:#263238;stroke:#263238;stroke-linecap:round;stroke-linejoin:round"></path><path d="M135.35,294.24a2.4,2.4,0,1,1-2.4-2.4A2.39,2.39,0,0,1,135.35,294.24Z" style="fill:#fff;stroke:#263238;stroke-linecap:round;stroke-linejoin:round"></path><path d="M166.06,294.24a4,4,0,1,1-4-4A4,4,0,0,1,166.06,294.24Z" style="fill:#263238;stroke:#263238;stroke-linecap:round;stroke-linejoin:round"></path><path d="M164.46,294.24a2.4,2.4,0,1,1-2.39-2.4A2.39,2.39,0,0,1,164.46,294.24Z" style="fill:#fff;stroke:#263238;stroke-linecap:round;stroke-linejoin:round"></path><path d="M157.08,295v-.78c0-.15,0-.3,0-.44-4.86-2.58-.87-6.68-.87-6.68-4.34.45-3.61,4.46-7.52,4.19s0-4.24,0-4.24c-4-.35-5.14,5.06-7.55,4.14s-1.57-3.33,1.39-4.16,3-4.12,3-4.12l-6.36-1-3.72,2.71s-10.91-.37-13.31,5.36l-.92,5H128v-.78a5,5,0,0,1,10,0V295Z" style="fill:#fff;stroke:#263238;stroke-linecap:round;stroke-linejoin:round"></path><path d="M157.56,281.28c-.35-1.41-4.11-1.52-5.54-1.74a81.62,81.62,0,0,0-9.55,0l-7,5.13h18.71S157.85,282.44,157.56,281.28Z" style="fill:#263238;stroke:#263238;stroke-linecap:round;stroke-linejoin:round"></path><path d="M122.14,290l0,.22h1.46a2,2,0,0,0,1.19-.4l2.82-2.12a.77.77,0,0,0-.47-1.39h-1A7.37,7.37,0,0,0,122.14,290Z" style="fill:#92BCE3;stroke:#263238;stroke-linecap:round;stroke-linejoin:round"></path></g><g id="freepik--character-1--inject-16"><path d="M322.19,200.72l.29,4.77s1.5,5.66-.8,5.16l-2.5-5.75.09-4.21Z" style="fill:#858585;stroke:#263238;stroke-linecap:round;stroke-linejoin:round"></path><path d="M333.08,209.34l-1.83,1.24-4.41.44s-7.37-4.49-13.17-3.73l-2.15.29a6.92,6.92,0,0,0-3.87,1.85l-5,4.8s-8.39.82-9.65,5.45l-.2,3.92,5.17-.68-.08-.61a3.85,3.85,0,0,1,7.64-1l.08.6L320.24,220l-.07-.6a3.85,3.85,0,1,1,7.64-1l.08.6,2.12-.28,3.77-8.75A.47.47,0,0,0,333.08,209.34Z" style="fill:#fff;stroke:#263238;stroke-linecap:round;stroke-linejoin:round"></path><path d="M319.22,209.39c-.41-1-3.3-.75-4.42-.77a62.2,62.2,0,0,0-7.31,1l-4.86,4.64,14.34-1.9S319.56,210.25,319.22,209.39Z" style="fill:#263238;stroke:#263238;stroke-linecap:round;stroke-linejoin:round"></path><path d="M304.75,221.4a3.09,3.09,0,1,1-3.46-2.65A3.1,3.1,0,0,1,304.75,221.4Z" style="fill:#263238;stroke:#263238;stroke-linecap:round;stroke-linejoin:round"></path><path d="M303.53,221.56a1.85,1.85,0,1,1-2.08-1.59A1.85,1.85,0,0,1,303.53,221.56Z" style="fill:#fff;stroke:#263238;stroke-linecap:round;stroke-linejoin:round"></path><path d="M327.05,218.45a3.09,3.09,0,1,1-3.47-2.65A3.09,3.09,0,0,1,327.05,218.45Z" style="fill:#263238;stroke:#263238;stroke-linecap:round;stroke-linejoin:round"></path><path d="M325.82,218.61a1.85,1.85,0,1,1-2.08-1.59A1.84,1.84,0,0,1,325.82,218.61Z" style="fill:#fff;stroke:#263238;stroke-linecap:round;stroke-linejoin:round"></path><path d="M293,219.68v.17l1.12-.15a1.49,1.49,0,0,0,.87-.42l1.94-1.91a.6.6,0,0,0-.49-1l-.76.1A5.76,5.76,0,0,0,293,219.68Z" style="fill:#fff;stroke:#263238;stroke-linecap:round;stroke-linejoin:round"></path><path d="M326.84,211s-.7-.42-1.83-1l-10.94,6.57.09-2.6-9.61,5.23a3.56,3.56,0,0,1,.6.92l7.11-3.41-.32,2.74,16.24-7.34.06-1.26Z" style="fill:#92BCE3;stroke:#263238;stroke-linecap:round;stroke-linejoin:round"></path><path d="M207.17,368.79c-.92,2.18-3.58,5.64-3.58,10.61v2.85s-.75,2.11,7.67,2.11,13.54-.45,13.54-2.11,1.42-10.68-1-19l.43-10-11.88-.75-2.26,10.68Z" style="fill:#fff;stroke:#263238;stroke-linecap:round;stroke-linejoin:round"></path><path d="M203.59,379.4v2.85s-.75,2.11,7.67,2.11,13.54-.45,13.54-2.11,1.42-10.68-1-19c0,0-1.35,1.13-2.13-1.32a4.84,4.84,0,0,0-4.69-3.69c-3.08,0-3.65,1.15-4.33,2.34a6.77,6.77,0,0,1-2.56,2.55l-2.89,5.64C206.25,371,203.59,374.43,203.59,379.4Z" style="fill:#263238;stroke:#263238;stroke-linecap:round;stroke-linejoin:round"></path><path d="M224.8,382.25c0-.46.11-1.52.22-3a78.3,78.3,0,0,0-21.42,0s0,.09,0,.14v2.85s-.75,2.11,7.67,2.11S224.8,383.91,224.8,382.25Z" style="fill:#92BCE3;stroke:#263238;stroke-linecap:round;stroke-linejoin:round"></path><path d="M264.94,347.37l1.2,18.47a19.4,19.4,0,0,0-1.52,10.29,4.78,4.78,0,0,0,2.92,4c3.59,1.47,12,3.33,31.93,3.34l.42,0L303,383a2.66,2.66,0,0,0,2.27-2.64h0a4.7,4.7,0,0,0-2-3.88,48,48,0,0,0-5.17-3.11,4.57,4.57,0,0,1-1-.65l-12.56-11a4.16,4.16,0,0,0-3.48-1l-1.71.29-.28-13.58Z" style="fill:#fff;stroke:#263238;stroke-linecap:round;stroke-linejoin:round"></path><path d="M274.21,365.41c-1.91,2.55-3.82,4.89-8.07.43a19.4,19.4,0,0,0-1.52,10.29,4.78,4.78,0,0,0,2.92,4c3.59,1.47,12,3.33,31.93,3.34l.42,0L303,383a2.66,2.66,0,0,0,2.27-2.64,4.7,4.7,0,0,0-2-3.88,48,48,0,0,0-5.17-3.11,4.57,4.57,0,0,1-1-.65l-12.56-11a4.16,4.16,0,0,0-3.48-1l-1.71.29A20.29,20.29,0,0,0,274.21,365.41Z" style="fill:#263238;stroke:#263238;stroke-linecap:round;stroke-linejoin:round"></path><path d="M299.47,383.46l.42,0L303,383a2.66,2.66,0,0,0,2.27-2.64,4.7,4.7,0,0,0-2-3.88l-.93-.62c-2.57,1.53-7.53,2.77-15.6,2.13-12.12-1-19.4-3.89-22.18-5.23a23.45,23.45,0,0,0,.07,3.42,4.78,4.78,0,0,0,2.92,4C271.13,381.59,279.59,383.45,299.47,383.46Z" style="fill:#92BCE3;stroke:#263238;stroke-linecap:round;stroke-linejoin:round"></path><path d="M224.8,230.24s-10.23,50.78-9.18,69.44l-7.47,54.77s8.16,3.64,20.08,0l9.14-53.38s6.48-50.43,13.8-49.53,6.29,45.6,6.81,54.72,4.27,48.17,4.27,48.17,11.59,1.8,21.06-1.21c0,0-2.5-45.39-2.71-48.74s-2.85-68.58-2.85-68.58Z" style="fill:#92BCE3;stroke:#263238;stroke-linecap:round;stroke-linejoin:round"></path><path d="M218.31,313.14s7.45,5,13.09,0-8.8.9-10.83-3.39" style="fill:none;stroke:#263238;stroke-linecap:round;stroke-linejoin:round"></path><path d="M271.67,315c2.55-.56,4.94-2,5.6-5.22" style="fill:none;stroke:#263238;stroke-linecap:round;stroke-linejoin:round"></path><path d="M264.25,314.88a20.28,20.28,0,0,0,2.91.39" style="fill:none;stroke:#263238;stroke-linecap:round;stroke-linejoin:round"></path><path d="M236.91,247.59s13,2.25,10.83,3.95-11.28.83-12.18,2.41" style="fill:none;stroke:#263238;stroke-linecap:round;stroke-linejoin:round"></path><path d="M267.32,248.76s-3.09,2.78-10.23,2.78,5.3-2.15,6.16-6" style="fill:none;stroke:#263238;stroke-linecap:round;stroke-linejoin:round"></path><path d="M243.15,138.09l-3,.34s-19.1,3.91-20.45,7.82-.91,50.62-.91,50.62-1.5,5.41.31,9.7c0,0-1.39,23.49,1.95,29.18,0,0,17,5.92,58.75,4.27,0,0,1.81-25.1.9-31.42a14.67,14.67,0,0,0,.4-10.61s5.56-48.76,1.67-53.48C282.76,144.51,274.89,139.34,243.15,138.09Z" style="fill:#263238;stroke:#263238;stroke-linecap:round;stroke-linejoin:round"></path><path d="M305.89,158.38s5.36,2.44,7,6a138,138,0,0,1,6.75,13.9,103.17,103.17,0,0,1,4.55,17.23c.71,3.69.73,6.54-.49,7.64-2,1.81-3.14,2.44-3.79,2.57a1.93,1.93,0,0,0-1.47,1.26l-.82,2.43a4.89,4.89,0,0,1-1.2,3,.68.68,0,0,1-1.11-.41l-.29-1.89s-1.61,4.08-3.76,2.73c0,0-.38,1.31-2.15,1a1,1,0,0,1-.79-1.27l.91-3.54s-.64,2.31-2.11,2.73a.66.66,0,0,1-.82-.82l2.14-6.54.2-1.75a2.13,2.13,0,0,1,1.35-1.75,43.64,43.64,0,0,0,4.43-2.36c.35-.24,1.16-.82,1.13-1.24-.56-8.12-11.85-24.48-11.85-24.48l-6.21-3.42Z" style="fill:#fff;stroke:#263238;stroke-linecap:round;stroke-linejoin:round"></path><path d="M310.35,203.41a3,3,0,0,0,1.75,1c1,0,.28,3.1,0,3.78s-.9,2.59-.9,2.59" style="fill:none;stroke:#263238;stroke-linecap:round;stroke-linejoin:round"></path><path d="M315,204.14a2.23,2.23,0,0,0,2,1.07" style="fill:none;stroke:#263238;stroke-linecap:round;stroke-linejoin:round"></path><path d="M208.23,174.65s-7.79,16.65-7.63,22,14.57,39.14,14.57,39.14a15.92,15.92,0,0,0,.7,6.39c1.08,2.64,1.93,5.3,4,5.84s2.36-.16,2.36-.16,2.52.4,3.23-.78c0,0,2.7-.18,3.3-1.35,0,0,2.23-.6,2.14-1.84l-1.56-3.06s1.71,1.91,3.57.9-1.53-1.42-2.53-4-6.62-6.12-6.62-6.12-6.88-26.11-9.6-35.58l5.91-15.62Z" style="fill:#fff;stroke:#263238;stroke-linecap:round;stroke-linejoin:round"></path><path d="M219.69,146.25l-14.82,30.08s3.39,7.22,18.73,8.13Z" style="fill:#263238;stroke:#263238;stroke-linecap:round;stroke-linejoin:round"></path><circle cx="253.76" cy="177.88" r="18.47" transform="translate(37.74 400.07) rotate(-80.84)" style="fill:#fff;stroke:#263238;stroke-linecap:round;stroke-linejoin:round"></circle><path d="M246.29,172.25s7.23-7.79,9.3-3.65,9.45-1.47,9.45-1.47-5,10.59-9.45,8.53-7.4,4.47-7.4,4.47S249.39,177,246.29,172.25Z" style="fill:#92BCE3;stroke:#263238;stroke-linecap:round;stroke-linejoin:round"></path><path d="M245.08,170.61l7.28,21.61a1,1,0,0,1-.58,1.22l-.41.14a1,1,0,0,1-1.25-.61l-6.87-21.76a1,1,0,0,1,.41-1.12h0A1,1,0,0,1,245.08,170.61Z" style="fill:#858585;stroke:#263238;stroke-linecap:round;stroke-linejoin:round"></path><path d="M223.39,170c-.16,2-.38,4-.67,6" style="fill:none;stroke:#7f7f7f;stroke-linecap:round;stroke-linejoin:round;stroke-width:0.75px"></path><path d="M223.6,152a135.72,135.72,0,0,1,0,15.16" style="fill:none;stroke:#7f7f7f;stroke-linecap:round;stroke-linejoin:round;stroke-width:0.75px"></path><path d="M282.76,144.51A267,267,0,0,1,310,159.19a21.47,21.47,0,0,1-12.53,15.11L281,164.15Z" style="fill:#263238;stroke:#263238;stroke-linecap:round;stroke-linejoin:round"></path><path d="M283.5,153.72c-.25-2.15-.63-3.79-1.23-3.81-1.76,0-.12,10-1.31,14.24" style="fill:none;stroke:#7f7f7f;stroke-linecap:round;stroke-linejoin:round;stroke-width:0.75px"></path><path d="M283.93,163.94s0-2.42-.09-5.26" style="fill:none;stroke:#7f7f7f;stroke-linecap:round;stroke-linejoin:round;stroke-width:0.75px"></path><path d="M287.33,165.26a9,9,0,0,0,1,1.87" style="fill:none;stroke:#7f7f7f;stroke-linecap:round;stroke-linejoin:round;stroke-width:0.75px"></path><path d="M285,155.88a58,58,0,0,0,1.56,7.25" style="fill:none;stroke:#7f7f7f;stroke-linecap:round;stroke-linejoin:round;stroke-width:0.75px"></path><path d="M269.89,203.87c-9.55,2.77-24.66,5.71-36.44,1.35" style="fill:none;stroke:#7f7f7f;stroke-linecap:round;stroke-linejoin:round;stroke-width:0.75px"></path><path d="M279.15,200.7s-2.27,1-5.94,2.15" style="fill:none;stroke:#7f7f7f;stroke-linecap:round;stroke-linejoin:round;stroke-width:0.75px"></path><path d="M224.4,203.87A40.93,40.93,0,0,0,244.11,215" style="fill:none;stroke:#7f7f7f;stroke-linecap:round;stroke-linejoin:round;stroke-width:0.75px"></path><path d="M221,199.8a21.44,21.44,0,0,0,1.44,1.87" style="fill:none;stroke:#7f7f7f;stroke-linecap:round;stroke-linejoin:round;stroke-width:0.75px"></path><path d="M243.92,129.22s-.77,5.75-3.78,9.21c0,0,12.66,18.53,27.24,4.07l-3.32-10.93Z" style="fill:#fff"></path><g style="clip-path:url(#freepik--clip-path-6--inject-16)"><path d="M241.25,130.46s2.63,10.9,12.86,14.44,13.27-4.61,13.27-4.61l-15-10.66-8.72-2.76Z" style="fill:#263238"></path></g><path d="M243.92,129.22s-.77,5.75-3.78,9.21c0,0,12.66,18.53,27.24,4.07l-3.32-10.93Z" style="fill:none;stroke:#263238;stroke-linecap:round;stroke-linejoin:round"></path><path d="M242.36,130.21c1.83,5.45,10,14.69,18.62,14.69s12.78-11.43,13.42-15.27,1.54-8.8,2.9-11.51,3.08-9.45.56-17.51S258,88,253.08,92.25s-14.44,17.9-14.44,17.9l1.2,7.62S241.35,127.2,242.36,130.21Z" style="fill:#fff;stroke:#263238;stroke-linecap:round;stroke-linejoin:round"></path><path d="M243.72,98.72s-3.19-11.43,1.43-11.43S243.93,94.21,243.72,98.72Z" style="fill:#263238;stroke:#263238;stroke-linecap:round;stroke-linejoin:round"></path><path d="M270.23,92.4s-17.9-11-26.18,4.66c0,0-14.62,5.56-4.81,25.43h4.06s8.12-6,10.08-15.5,0,11.89,0,11.89a41.08,41.08,0,0,0,7.91.63,71.86,71.86,0,0,0,1-12.52s1.83,3.54,1.23,12.5a97.32,97.32,0,0,0,10.13-.85A26.06,26.06,0,0,0,276.24,107s1.85,3.09-.35,11.33c1.05-.17,2.13-.34,3.26-.55C279.15,117.77,286.92,99.47,270.23,92.4Z" style="fill:#263238;stroke:#263238;stroke-linecap:round;stroke-linejoin:round"></path><path d="M268.5,129.37l.8,2.29a2,2,0,0,1-2,2.69l-2.42-.06" style="fill:none;stroke:#263238;stroke-linecap:round;stroke-linejoin:round"></path><path d="M256.84,137.08s2.86,4.08,7.22.67" style="fill:none;stroke:#263238;stroke-linecap:round;stroke-linejoin:round"></path><path d="M262.73,125.82c-.13,1.17-.68,2.07-1.22,2s-.86-1-.73-2.22.68-2.06,1.22-2S262.86,124.66,262.73,125.82Z" style="fill:#263238"></path><path d="M272.91,127c-.19,1-.74,1.8-1.22,1.71s-.71-1-.51-2,.74-1.81,1.22-1.72S273.11,126,272.91,127Z" style="fill:#263238"></path><path d="M257.75,120.78a6.55,6.55,0,0,1,8,1" style="fill:none;stroke:#263238;stroke-linecap:round;stroke-linejoin:round"></path><path d="M271.32,120.92s2.8-2,3.74.35" style="fill:none;stroke:#263238;stroke-linecap:round;stroke-linejoin:round"></path><path d="M244,123.09a4.23,4.23,0,0,0-3.56-1.81c-6.08-.45-3.26,9.2,0,10.74s4.33-1.39,4.33-1.39" style="fill:#fff;stroke:#263238;stroke-linecap:round;stroke-linejoin:round"></path><path d="M246.28,112.53a29,29,0,0,1-2.17,2" style="fill:none;stroke:#7f7f7f;stroke-linecap:round;stroke-linejoin:round;stroke-width:0.75px"></path><path d="M252.41,95.56c-4.51-.88,2.2,5.7-4.15,14.58" style="fill:none;stroke:#7f7f7f;stroke-linecap:round;stroke-linejoin:round;stroke-width:0.75px"></path><path d="M260.53,100.85c-2.15-1.06-3.13-2.79-5-4" style="fill:none;stroke:#7f7f7f;stroke-linecap:round;stroke-linejoin:round;stroke-width:0.75px"></path><path d="M261.75,93c-8.51-1.83,6.73,9.4,1.48,8.65" style="fill:none;stroke:#7f7f7f;stroke-linecap:round;stroke-linejoin:round;stroke-width:0.75px"></path><path d="M273.21,107.07s1.61-9.85-9.14-13.44" style="fill:none;stroke:#7f7f7f;stroke-linecap:round;stroke-linejoin:round;stroke-width:0.75px"></path><line x1="315.03" y1="206.3" x2="315.03" y2="207.88" style="fill:#fff;stroke:#263238;stroke-linecap:round;stroke-linejoin:round"></line><line x1="310.01" y1="207.44" x2="310.82" y2="205.22" style="fill:#fff;stroke:#263238;stroke-linecap:round;stroke-linejoin:round"></line><path d="M304.47,171.78a4.5,4.5,0,0,1,1.84-2.73" style="fill:#fff;stroke:#263238;stroke-linecap:round;stroke-linejoin:round"></path></g><g id="freepik--Track--inject-16"><path d="M234.88,378.42l-.85-95a3.18,3.18,0,0,0-3.84-3.1,3.22,3.22,0,0,0-2.51,3.18l-.86,94.94L221,379a3.12,3.12,0,0,0-2.8,3.11v1.79h25.27v-1.79a3.12,3.12,0,0,0-2.81-3.11Z" style="fill:#858585;stroke:#263238;stroke-linecap:round;stroke-linejoin:round"></path><path d="M330,378.42l-.86-151.17a3.18,3.18,0,0,0-3.84-3.09,3.22,3.22,0,0,0-2.51,3.17l-.85,151.09-5.8.61a3.12,3.12,0,0,0-2.81,3.11v1.79h25.27v-1.79a3.12,3.12,0,0,0-2.81-3.11Z" style="fill:#858585;stroke:#263238;stroke-linecap:round;stroke-linejoin:round"></path><path d="M89.77,385.74a352.29,352.29,0,0,1-52.19-4.35l.7-4.6a3.49,3.49,0,0,1,3.95-2.93c31,4.44,56.54,4.94,78.12,1.53l.16,0A34,34,0,0,0,149.1,342h8.13a42.16,42.16,0,0,1-35.46,41.39l-.15,0A204.07,204.07,0,0,1,89.77,385.74Z" style="fill:#263238;stroke:#263238;stroke-linecap:round;stroke-linejoin:round"></path><path d="M157.23,342H149.1a33.76,33.76,0,0,0-67.52,0H73.46a41.89,41.89,0,1,1,83.77,0Z" style="fill:#263238;stroke:#263238;stroke-linecap:round;stroke-linejoin:round"></path><path d="M115.34,383.88A41.93,41.93,0,0,1,73.46,342h8.12a33.81,33.81,0,0,0,33.76,33.76,34.35,34.35,0,0,0,5.18-.4c54-8.59,71.27-40,89.51-73.29,4.76-8.69,9.68-17.67,15.25-26,14.38-21.58,37.55-38,67-47.44a174.15,174.15,0,0,1,37-7.61,3.41,3.41,0,0,1,3.69,3.26l.17,4.62c-.69,0-68.81,3.15-101.12,51.68-5.37,8.07-10.21,16.9-14.89,25.43-18.38,33.53-37.39,68.2-95.37,77.42l-.16,0h0A42.41,42.41,0,0,1,115.34,383.88Z" style="fill:#263238;stroke:#263238;stroke-linecap:round;stroke-linejoin:round"></path><path d="M88.87,383.93a352.29,352.29,0,0,1-52.19-4.35l.7-4.6a3.48,3.48,0,0,1,3.95-2.92c31,4.43,56.54,4.93,78.12,1.52l.16,0a34,34,0,0,0,28.59-33.37h8.12a42.14,42.14,0,0,1-35.45,41.39l-.15,0A204.12,204.12,0,0,1,88.87,383.93Z" style="fill:#fff;stroke:#263238;stroke-linecap:round;stroke-linejoin:round"></path><path d="M156.32,340.19H148.2a33.76,33.76,0,0,0-67.52,0H72.56a41.88,41.88,0,0,1,83.76,0Z" style="fill:#fff;stroke:#263238;stroke-linecap:round;stroke-linejoin:round"></path><path d="M114.44,382.07a41.92,41.92,0,0,1-41.88-41.88h8.12A33.8,33.8,0,0,0,114.44,374a34.44,34.44,0,0,0,5.18-.39c54-8.59,71.26-40,89.51-73.3,4.76-8.68,9.68-17.66,15.25-26,14.37-21.59,37.55-38,67-47.45a174.59,174.59,0,0,1,37-7.6,3.38,3.38,0,0,1,3.68,3.25l.17,4.63c-.68,0-68.8,3.14-101.11,51.67-5.37,8.08-10.21,16.9-14.89,25.44-18.38,33.53-37.39,68.2-95.37,77.41l-.16,0h0A42.51,42.51,0,0,1,114.44,382.07Z" style="fill:#fff;stroke:#263238;stroke-linecap:round;stroke-linejoin:round"></path><path d="M324.83,234H316v-4.93h8.82a2.47,2.47,0,0,1,2.46,2.47h0A2.46,2.46,0,0,1,324.83,234Z" style="fill:#fff;stroke:#263238;stroke-linecap:round;stroke-linejoin:round"></path><path d="M320,378.42l-.85-151.17a3.19,3.19,0,0,0-3.84-3.09,3.23,3.23,0,0,0-2.52,3.17L312,378.42l-5.8.61a3.13,3.13,0,0,0-2.81,3.11v1.79h25.27v-1.79a3.12,3.12,0,0,0-2.8-3.11Z" style="fill:#fff;stroke:#263238;stroke-linecap:round;stroke-linejoin:round"></path><path d="M229.74,290.16h-8.82v-4.92h8.82a2.47,2.47,0,0,1,2.47,2.46h0A2.47,2.47,0,0,1,229.74,290.16Z" style="fill:#fff;stroke:#263238;stroke-linecap:round;stroke-linejoin:round"></path><path d="M225,378.42l-.85-95a3.18,3.18,0,0,0-3.84-3.1,3.23,3.23,0,0,0-2.51,3.18l-.86,94.94-5.79.61a3.12,3.12,0,0,0-2.81,3.11v1.79h25.27v-1.79a3.12,3.12,0,0,0-2.81-3.11Z" style="fill:#fff;stroke:#263238;stroke-linecap:round;stroke-linejoin:round"></path></g><g id="freepik--character-2--inject-16"><path d="M365.78,355l5.2,2.93a9.29,9.29,0,0,0,6.73.92c10.37-2.54,40.68-9.12,48.16-1.48,9.06,9.26,3.51,19.59-9.29,24.93s-46.72,11.95-46.72,11.95L367.44,391l-6,1.45s-3.33,3.43-10.66,4.37c0,0-8-10.26-4.26-21.5,0,0,1.49-2.39,10.11-1.5l6.58-.17-8.5-9v-6.95Z" style="fill:#92BCE3"></path><g style="clip-path:url(#freepik--clip-path-7--inject-16)"><path d="M387.94,355s-17.52,4.89-15.95,9,28.12-5,30,0-30.08,13.07-30.08,13.07L377,394.74l-12.33,4.85-29.89-30.18,15-20H378.5Z" style="opacity:0.2"></path></g><path d="M365.78,355l5.2,2.93a9.29,9.29,0,0,0,6.73.92c10.37-2.54,40.68-9.12,48.16-1.48,9.06,9.26,3.51,19.59-9.29,24.93s-46.72,11.95-46.72,11.95L367.44,391l-6,1.45s-3.33,3.43-10.66,4.37c0,0-8-10.26-4.26-21.5,0,0,1.49-2.39,10.11-1.5l6.58-.17-8.5-9v-6.95Z" style="fill:none;stroke:#263238;stroke-linecap:round;stroke-linejoin:round"></path><path d="M350.82,396.84s-8-10.26-4.26-21.5c0,0,1.49-2.39,10.11-1.5l6.58-.17c8.23,5.53,4.19,17.35,4.19,17.35l-6,1.45S358.15,395.9,350.82,396.84Z" style="fill:#263238;stroke:#263238;stroke-linecap:round;stroke-linejoin:round"></path><path d="M369.84,370.05s31.48-2.75,30.3-5.37S386.9,368,381,367.29" style="fill:none;stroke:#263238;stroke-linecap:round;stroke-linejoin:round"></path><path d="M356.67,373.84s-1.4,4.82,2.74,2.66,4.09,5.2,4.47,8.81-5.95,2-4.15,3.1,1.75,4.06,1.75,4.06-3.33,3.43-10.66,4.37c0,0-8-10.26-4.26-21.5C346.56,375.34,348.05,373,356.67,373.84Z" style="fill:#fff;stroke:#263238;stroke-linecap:round;stroke-linejoin:round"></path><path d="M372,361.56s-3.55-1.29-11.65.56" style="fill:none;stroke:#263238;stroke-linecap:round;stroke-linejoin:round"></path><path d="M350.58,373.78c-.62,11.48,3.28,19.31,4.9,22a24.64,24.64,0,0,1-4.66,1s-8-10.26-4.26-21.5C346.56,375.34,347.28,374.19,350.58,373.78Z" style="fill:#92BCE3;stroke:#263238;stroke-linecap:round;stroke-linejoin:round"></path><path d="M391.14,377.09l10.61,1.18s.61-1.79,10-.17,20.36,2.1,21.26,9.5a41,41,0,0,1-3.18,12.23,5.18,5.18,0,0,1-6,3.05,17.5,17.5,0,0,1-8.68-5.87s-12.27-1.7-15-4.9l-10.35-3Z" style="fill:#fff;stroke:#263238;stroke-linecap:round;stroke-linejoin:round"></path><path d="M405.58,391.89c.56-1.2-5.86-.18-4.85-6.9s3.74-3.11,4.88-4.83-3.86-1.89-3.86-1.89.61-1.79,10-.17,20.36,2.1,21.26,9.5a41,41,0,0,1-3.18,12.23,5.18,5.18,0,0,1-6,3.05,17.5,17.5,0,0,1-8.68-5.87s-12.27-1.7-15-4.9C400.14,392.11,405,393.09,405.58,391.89Z" style="fill:#263238;stroke:#263238;stroke-linecap:round;stroke-linejoin:round"></path><path d="M433,387.6a41,41,0,0,1-3.18,12.23,5.18,5.18,0,0,1-6,3.05,14.46,14.46,0,0,1-3.82-1.66,18.93,18.93,0,0,1-.39-12.53c1.26-4.55,3.74-6.83,6.15-7.95C429.67,382,432.57,384,433,387.6Z" style="fill:#fff;stroke:#263238;stroke-linecap:round;stroke-linejoin:round"></path><path d="M433,387.6a41,41,0,0,1-3.18,12.23,5.18,5.18,0,0,1-6,3.05l-.48-.15c1.82-.9,3.34-3.51,4.95-9.37s.57-9.79-.26-11.76C430.75,382.86,432.66,384.7,433,387.6Z" style="fill:#92BCE3;stroke:#263238;stroke-linecap:round;stroke-linejoin:round"></path><path d="M318.42,350.77s-6.53,14.1-3.26,24.35,14,16.33,29.29,12.27l48.68,7.35s5.33-5.05,3.55-18.61l-38.21-13.2a23.92,23.92,0,0,0-1.8-10.23Z" style="fill:#92BCE3"></path><g style="clip-path:url(#freepik--clip-path-8--inject-16)"><path d="M340.34,390.06s12.9-4.47-7.73-6-17.43-23.39-17.43-23.39l-10.56-1s-10.76-14.6-3.67,8.7l7.09,23.3s2,1.52,13.93,1.65l11.91.12Z" style="opacity:0.2"></path><path d="M353.44,350.77l7.86,7.59L359,362.93S344,356.44,330,359s-16.74-2.79-12.93-4.54l-5.5-1.5,1-4.64,29.33-1.15Z" style="opacity:0.2"></path></g><path d="M318.42,350.77s-6.53,14.1-3.26,24.35,14,16.33,29.29,12.27l48.68,7.35s5.33-5.05,3.55-18.61l-38.21-13.2a23.92,23.92,0,0,0-1.8-10.23Z" style="fill:none;stroke:#263238;stroke-linecap:round;stroke-linejoin:round"></path><path d="M341.83,384.68c1.05,1.09-6.11,3-16.82-2.38" style="fill:none;stroke:#263238;stroke-linecap:round;stroke-linejoin:round"></path><path d="M326.24,379.65c3.22,2,8.17,4.46,12.73,4.49" style="fill:none;stroke:#263238;stroke-linecap:round;stroke-linejoin:round"></path><path d="M322.73,377.26s.54.42,1.47,1.06" style="fill:none;stroke:#263238;stroke-linecap:round;stroke-linejoin:round"></path><path d="M350.57,360.9a41.24,41.24,0,0,0-9.41-1.16" style="fill:none;stroke:#263238;stroke-linecap:round;stroke-linejoin:round"></path><path d="M354.75,362.12s-.62-.23-1.67-.55" style="fill:none;stroke:#263238;stroke-linecap:round;stroke-linejoin:round"></path><path d="M441.55,397.74h2.92a1.14,1.14,0,0,1,1.14,1.14v6.83a0,0,0,0,1,0,0h-5.2a0,0,0,0,1,0,0v-6.83A1.14,1.14,0,0,1,441.55,397.74Z" transform="translate(886.02 803.46) rotate(180)" style="fill:#263238;stroke:#263238;stroke-linecap:round;stroke-linejoin:round"></path><path d="M414.87,397.74h2.92a1.14,1.14,0,0,1,1.14,1.14v6.83a0,0,0,0,1,0,0h-5.2a0,0,0,0,1,0,0v-6.83A1.14,1.14,0,0,1,414.87,397.74Z" transform="translate(832.67 803.46) rotate(180)" style="fill:#263238;stroke:#263238;stroke-linecap:round;stroke-linejoin:round"></path><path d="M414.45,389.81l1.86-2a6.11,6.11,0,0,0,.83-1.18l3.59-6.79a5.19,5.19,0,0,1,4.58-2.75h9.29a5.19,5.19,0,0,1,4.58,2.75l3.59,6.79a5.35,5.35,0,0,0,.83,1.18l1.86,2a8.87,8.87,0,0,1,2.35,6v4.59H412.1v-4.59A8.87,8.87,0,0,1,414.45,389.81Z" style="fill:#fff;stroke:#263238;stroke-linecap:round;stroke-linejoin:round"></path><path d="M417.9,388.47a18.7,18.7,0,0,1,4.91,5.67,3.81,3.81,0,0,0,3.34,2.17h7.6a3.81,3.81,0,0,0,3.34-2.17,18.85,18.85,0,0,1,4.91-5.67" style="fill:none;stroke:#263238;stroke-linecap:round;stroke-linejoin:round"></path><circle cx="442.84" cy="393.09" r="1.96" style="fill:#92BCE3;stroke:#263238;stroke-linecap:round;stroke-linejoin:round"></circle><path d="M415.11,393.09a2,2,0,1,0,2-1.95A2,2,0,0,0,415.11,393.09Z" style="fill:#92BCE3;stroke:#263238;stroke-linecap:round;stroke-linejoin:round"></path><line x1="440.88" y1="398.27" x2="419.03" y2="398.27" style="fill:none;stroke:#263238;stroke-linecap:round;stroke-linejoin:round"></line><path d="M430.09,388.14h-.27c-7.19,0-10.94-1.54-12.29-2.26l3.2-6.05a5.19,5.19,0,0,1,4.58-2.75h9.29a5.19,5.19,0,0,1,4.58,2.75l3.2,6.05C441,386.6,437.27,388.14,430.09,388.14Z" style="fill:#92BCE3;stroke:#263238;stroke-linecap:round;stroke-linejoin:round"></path><path d="M443.57,397.74a1,1,0,1,0,1-1A1,1,0,0,0,443.57,397.74Z" style="fill:#92BCE3;stroke:#263238;stroke-linecap:round;stroke-linejoin:round"></path><path d="M414.29,397.74a1,1,0,1,0,1-1A1,1,0,0,0,414.29,397.74Z" style="fill:#92BCE3;stroke:#263238;stroke-linecap:round;stroke-linejoin:round"></path><path d="M430,394.25v-4a13.86,13.86,0,0,0,5.3-.59" style="fill:none;stroke:#263238;stroke-linecap:round;stroke-linejoin:round"></path><path d="M379.92,291.88a8.4,8.4,0,0,1,4,8.95c-.71,3.51-1.92,8.76-3.92,15.74-4.05,14.12-12.16,33.21-8.63,40.46,0,0-21.47,4.82-56-5.57,0,0,4.24-58.18,16.58-66.23C341.4,279.07,367.18,284.52,379.92,291.88Z" style="fill:#263238;stroke:#263238;stroke-linecap:round;stroke-linejoin:round"></path><path d="M351,266s-2.42,12-7.25,16.43a2.83,2.83,0,0,0,0,4.11c5.13,4.92,16.8,14.2,23.73,4.63,0,0-10.69-14.21-10.85-20.46Z" style="fill:#fff"></path><g style="clip-path:url(#freepik--clip-path-9--inject-16)"><path d="M351.67,270.36s-7.2,10.57,3.46,19.18S370.34,294,370.34,294l-10.53-13.33Z" style="fill:#263238"></path></g><path d="M351,266s-2.42,12-7.25,16.43a2.83,2.83,0,0,0,0,4.11c5.13,4.92,16.8,14.2,23.73,4.63,0,0-10.69-14.21-10.85-20.46Z" style="fill:none;stroke:#263238;stroke-linecap:round;stroke-linejoin:round"></path><path d="M385.5,274.67h0a8.35,8.35,0,0,0-3.06,4.12,17.41,17.41,0,0,1-6.6,8.92c-6.15,4.1-7.72,6.87-12.06,4.82s-13.23-8.41-12.95-16.88c0-1.34.84-5.29.84-5.29l3.67-17.5,27-4.7,6.39,7,3.38,10.61-2.34,4.17A14.29,14.29,0,0,1,385.5,274.67Z" style="fill:#fff;stroke:#263238;stroke-linecap:round;stroke-linejoin:round"></path><path d="M365.71,235.86c6.5,0,16.16-.12,23.88,10.25,0,0,9.16,6.27,5.91,17.36-2.36,8-7.11,9.11-9.56,9.09a11,11,0,0,0,4.41-6.24,16.6,16.6,0,0,1-6.83,5.19,30.06,30.06,0,0,0-6.95-5.06,12.72,12.72,0,0,0,5.82-6.07,25.59,25.59,0,0,1-8.73,4.91,10.87,10.87,0,0,0-3.7-.49c-7.14.36-4-7.08-4-7.08s-4.94,5.27-9.52,6.72-5.31,8.9-5.31,8.9-5.53-3.41-5.6-15.62S352.54,235.94,365.71,235.86Z" style="fill:#263238;stroke:#263238;stroke-linecap:round;stroke-linejoin:round"></path><path d="M385.25,246.9s9.55-3.82,12.37,1.35S393.37,245.45,385.25,246.9Z" style="fill:#263238;stroke:#263238;stroke-linecap:round;stroke-linejoin:round"></path><path d="M380.22,276.63c-.4.77-.42,1.55,0,1.74s1-.27,1.39-1,.42-1.55,0-1.75S380.61,275.86,380.22,276.63Z" style="fill:#263238"></path><path d="M373.16,273c-.39.77-.41,1.55,0,1.74s1-.27,1.4-1,.42-1.55,0-1.75S373.56,272.22,373.16,273Z" style="fill:#263238"></path><polyline points="376.52 277.61 376.52 282.42 372.37 281.46" style="fill:none;stroke:#263238;stroke-linecap:round;stroke-linejoin:round"></polyline><path d="M384.58,275.43s.14-1.67-1.22-2.09" style="fill:none;stroke:#263238;stroke-linecap:round;stroke-linejoin:round"></path><path d="M378.7,270.69s-1.8-2.36-5.85-1.79" style="fill:none;stroke:#263238;stroke-linecap:round;stroke-linejoin:round"></path><path d="M356.59,265.36s-.2-5.52-3.86-5.68c-3-.13-4,3.64-4.1,5.81s.32,7.91,3.78,7.1" style="fill:#fff;stroke:#263238;stroke-linecap:round;stroke-linejoin:round"></path><path d="M351.8,253.57a23.86,23.86,0,0,0-1,2.32" style="fill:none;stroke:#7f7f7f;stroke-linecap:round;stroke-linejoin:round"></path><path d="M373.84,257.75c-4.55-.43,5.15-13.77,1.42-15.22s-8.54,8.37-11.6,7.48c-2.51-.73-6.92-3.66-10.6,1.43" style="fill:none;stroke:#7f7f7f;stroke-linecap:round;stroke-linejoin:round"></path><path d="M386,261.18c-.1-4.13.51-11.74-2-14.47-3.15-3.36-4.76,5.34-7.44,9.26" style="fill:none;stroke:#7f7f7f;stroke-linecap:round;stroke-linejoin:round"></path><path d="M389.1,256.14c.37,2.38.23,5-1.32,7" style="fill:none;stroke:#7f7f7f;stroke-linecap:round;stroke-linejoin:round"></path><path d="M387.14,250a23.61,23.61,0,0,1,1,2.33" style="fill:none;stroke:#7f7f7f;stroke-linecap:round;stroke-linejoin:round"></path><path d="M370.34,284.69s-4.27-1.13-5.79-4.54" style="fill:none;stroke:#263238;stroke-linecap:round;stroke-linejoin:round"></path><path d="M364.9,348.94c1.62-.35,2.54-.59,2.54-.59" style="fill:none;stroke:#7f7f7f;stroke-linecap:round;stroke-linejoin:round"></path><path d="M321.46,348.35c13.45,5.46,32.5,2.75,41.25,1" style="fill:none;stroke:#7f7f7f;stroke-linecap:round;stroke-linejoin:round"></path><path d="M353.67,354.86c-17.4.8-25.73-2.11-29.47-4.3" style="fill:none;stroke:#7f7f7f;stroke-linecap:round;stroke-linejoin:round"></path><path d="M359.73,354.46c-1.15.1-2.27.18-3.35.25" style="fill:none;stroke:#7f7f7f;stroke-linecap:round;stroke-linejoin:round"></path><path d="M345,338.58l-4.8-4.93,1.25-14.81,5.49-5.12,1.72-8.36,3.82-7,3.31.78a2.66,2.66,0,0,1,2,2.82l-.25,3a4.53,4.53,0,0,0-.76,9l-1.47,17.47a4.53,4.53,0,1,0-.75,9l0,.35-2.94,3.77-4.2-.35a2.92,2.92,0,0,1-2.66-3.15Z" style="fill:#92BCE3;stroke:#263238;stroke-linecap:round;stroke-linejoin:round"></path><polygon points="346.86 322.77 342.07 323.5 342.55 317.81 346.94 313.72 347.66 313.27 346.86 322.77" style="fill:#fff;stroke:#263238;stroke-linecap:round;stroke-linejoin:round"></polygon><polygon points="341.3 332.68 341.93 325.21 346.72 324.47 345.86 334.69 344.26 335.57 341.3 332.68" style="fill:#fff;stroke:#263238;stroke-linecap:round;stroke-linejoin:round"></polygon><circle cx="357.21" cy="309.53" r="3.62" transform="translate(-47.89 66.02) rotate(-9.9)" style="fill:#fff;stroke:#263238;stroke-linecap:round;stroke-linejoin:round"></circle><path d="M357.09,311a1.45,1.45,0,0,0,.24-2.89,1.45,1.45,0,1,0-.24,2.89Z" style="fill:#92BCE3;stroke:#263238;stroke-linecap:round;stroke-linejoin:round"></path><path d="M354.68,339.64a3.62,3.62,0,1,0-3.31-3.92A3.62,3.62,0,0,0,354.68,339.64Z" style="fill:#fff;stroke:#263238;stroke-linecap:round;stroke-linejoin:round"></path><path d="M354.86,337.47a1.45,1.45,0,1,0,.25-2.89,1.45,1.45,0,0,0-.25,2.89Z" style="fill:#92BCE3;stroke:#263238;stroke-linecap:round;stroke-linejoin:round"></path><path d="M352.48,298.37l2.13.5L353.48,300a5.22,5.22,0,0,0-.74.89l-.27.38a5.83,5.83,0,0,1-2.74,2.16Z" style="fill:#fff;stroke:#263238;stroke-linecap:round;stroke-linejoin:round"></path><line x1="350.74" y1="319.69" x2="349.73" y2="329" style="fill:#92BCE3;stroke:#263238;stroke-linecap:round;stroke-linejoin:round"></line><line x1="351.36" y1="314.04" x2="351.15" y2="315.97" style="fill:#92BCE3;stroke:#263238;stroke-linecap:round;stroke-linejoin:round"></line><path d="M326.57,332.85l9.32,3s-2.91-10-.52-12.41,5.79-5.56,7.57-4.49c2.17,1.31-1.87,3.45-1.87,3.45s4-3.08,4.5-1.2-4.7,4.91-4.7,4.91,4.84-3.16,5.37-1.28-4.48,4.46-4.48,4.46l-.89,1.52s3.59-2.4,4.7-1.52-3.32,4.82-3.32,4.82l.31,3.18s.16,6.85-2.92,7.27S325,341.62,325,341.62Z" style="fill:#fff;stroke:#263238;stroke-linecap:round;stroke-linejoin:round"></path><line x1="339.64" y1="323.43" x2="337.19" y2="325.8" style="fill:none;stroke:#263238;stroke-linecap:round;stroke-linejoin:round"></line><path d="M339.64,326.61l-1.22,1.17-.42,2.7s-.54-3.24-1.25-3-1.1-2.33-1.1-2.33" style="fill:none;stroke:#263238;stroke-linecap:round;stroke-linejoin:round"></path><path d="M332.13,347.2c-7.19-.05-24.33-8.41-29.76-13.14s.41-21.1,9.12-33.57c6.17-8.82,17.09-14.29,22.95-16.73a3.23,3.23,0,0,1,4.49,2.83c.25,5.18-.53,13.87-7.49,19.33-10.44,8.21-15,20.65-15,20.65,8.79,3.53,16.11,7.31,16.11,7.31A15.46,15.46,0,0,1,332.13,347.2Z" style="fill:#263238;stroke:#263238;stroke-linecap:round;stroke-linejoin:round"></path><path d="M319.62,343.68c-.85-.36-1.71-.73-2.57-1.12" style="fill:none;stroke:#7f7f7f;stroke-linecap:round;stroke-linejoin:round"></path><path d="M318.87,327.55c7.7,3.21,13.73,6.33,13.73,6.33a15.46,15.46,0,0,1-.4,13.32c-2.52,0-6.27-1.06-10.31-2.61" style="fill:none;stroke:#7f7f7f;stroke-linecap:round;stroke-linejoin:round"></path><path d="M327,310.11a50.37,50.37,0,0,0-4.79,5.95,54.44,54.44,0,0,0-2.92,4.73" style="fill:none;stroke:#7f7f7f;stroke-linecap:round;stroke-linejoin:round"></path><path d="M331.51,305.92c-.9.71-1.76,1.46-2.58,2.22" style="fill:none;stroke:#7f7f7f;stroke-linecap:round;stroke-linejoin:round"></path><path d="M305.39,327.34c-.49.28-1,.6-1.53,1" style="fill:none;stroke:#7f7f7f;stroke-linecap:round;stroke-linejoin:round"></path><path d="M306.75,321.51s7.87,2,7.7,4.11c-.14,1.81-2.34-1.31-7.67,1" style="fill:none;stroke:#7f7f7f;stroke-linecap:round;stroke-linejoin:round"></path><path d="M423.15,365.11l1,2.91a59.23,59.23,0,0,0-3.42,5.7c-.43,1.18-1.13,4.92-1.13,4.92a1,1,0,0,0,1.53,1.08,4.3,4.3,0,0,0,1.38-1.62c1.21-2.39,2.63-5.65,5.11-5.39a18.11,18.11,0,0,1,8.31,3.54c1.15,1.09,3.42,5.32,3.42,5.32s1.9,2.91,3.54,2.53.76-1,0-4.31a3.16,3.16,0,0,0,.94-3.79s1.29-2.16.31-3.55.93-2.62-1.69-5.16-5.86-1.32-7.79-5.35S423.15,365.11,423.15,365.11Z" style="fill:#fff;stroke:#263238;stroke-linecap:round;stroke-linejoin:round"></path><path d="M441.76,378.27a2.77,2.77,0,0,0,.64-3.16c-.76-2,.86-3.14-.21-5.7" style="fill:none;stroke:#263238;stroke-linecap:round;stroke-linejoin:round"></path><path d="M379.92,291.88s29.93,25.79,37.53,31.14,18.49,38.75,18.49,38.75-3.55,6.63-13.42,5.36l-17.23-31.66-28.76-22.54S369.49,301.22,379.92,291.88Z" style="fill:#263238;stroke:#263238;stroke-linecap:round;stroke-linejoin:round"></path><path d="M415.68,327.83s-4.05-.78-7.85,4.95" style="fill:none;stroke:#7f7f7f;stroke-linecap:round;stroke-linejoin:round"></path><path d="M382.32,304.46a19.13,19.13,0,0,1-.62,6.65c-1.69,5.46,3.72-5.31,5.07-5.19" style="fill:none;stroke:#7f7f7f;stroke-linecap:round;stroke-linejoin:round"></path><path d="M381.31,298.11s.32,1.15.6,2.87" style="fill:none;stroke:#7f7f7f;stroke-linecap:round;stroke-linejoin:round"></path></g></svg>