<svg xmlns="http://www.w3.org/2000/svg" viewBox="0 0 500 500"><g id="freepik--Table--inject-184"><path d="M453.63,471.68c0,.15-91.08.26-203.41.26s-203.44-.11-203.44-.26,91.07-.26,203.44-.26S453.63,471.54,453.63,471.68Z" style="fill:#263238"></path></g><g id="freepik--Character--inject-184"><path d="M254.37,63.36s42.7-11.9,62.45,45.52c15.34,44.59,14.65,160,14.65,160s-61.49-1-63.42-.51S254.37,63.36,254.37,63.36Z" style="fill:#263238"></path><path d="M320.49,233.5a4.57,4.57,0,0,1,0-.48c0-.34,0-.81,0-1.41,0-1.23,0-3.06.12-5.4.26-4.69.77-11.46,2-19.77s2.94-18.15,4.57-29.11,3.1-23.11,2.32-35.88l-.12-2.38-.27-2.36c-.19-1.56-.33-3.12-.57-4.66-.61-3-1-6.08-1.9-9a85.62,85.62,0,0,0-6.16-16.18,88.3,88.3,0,0,0-8.25-13.35c-1.42-2-3-3.79-4.42-5.57s-3-3.36-4.49-4.8A97.69,97.69,0,0,0,288,70.59c-1.93-1.33-3.51-2.24-4.56-2.88l-1.2-.74a4.42,4.42,0,0,1-.4-.26,3.92,3.92,0,0,1,.43.22l1.22.69c1.07.61,2.67,1.49,4.62,2.8a95.28,95.28,0,0,1,15.43,12.5c1.53,1.44,2.95,3.13,4.52,4.8s3,3.56,4.47,5.58A87.41,87.41,0,0,1,327.09,123c.86,2.9,1.3,6,1.91,9,.24,1.55.38,3.12.58,4.69q.14,1.17.27,2.37l.12,2.39c.78,12.83-.74,25-2.36,36s-3.49,20.79-4.68,29.09-1.81,15-2.13,19.73c-.12,2.34-.15,4.16-.21,5.39,0,.6,0,1.07-.07,1.41S320.49,233.5,320.49,233.5Z" style="fill:#263238"></path><path d="M309.2,98.36a3.35,3.35,0,0,1-.35-.45l-.9-1.36c-.39-.6-.86-1.32-1.47-2.12s-1.24-1.75-2.07-2.71l-1.26-1.54c-.43-.53-.94-1-1.43-1.6-1-1.12-2.13-2.21-3.32-3.38a65.14,65.14,0,0,0-18-12c-1.54-.65-3-1.3-4.4-1.77-.7-.25-1.37-.52-2-.72l-1.9-.58c-1.2-.39-2.33-.62-3.3-.87s-1.82-.43-2.52-.55l-1.6-.33a2.28,2.28,0,0,1-.55-.15,3,3,0,0,1,.57,0l1.62.23a25.1,25.1,0,0,1,2.54.46c1,.23,2.12.43,3.34.81l1.92.55c.66.19,1.34.45,2.05.69,1.42.46,2.89,1.1,4.44,1.75a62.16,62.16,0,0,1,18.11,12.12c1.19,1.19,2.34,2.3,3.31,3.44.49.57,1,1.09,1.42,1.63l1.24,1.57c.81,1,1.43,2,2,2.78a25.52,25.52,0,0,1,1.41,2.17l.82,1.41A2,2,0,0,1,309.2,98.36Z" style="fill:#455a64"></path><path d="M213.39,97l42-19.61,11.31.65c25.29-1.39,41.84,25,43.22,45.42,1.58,23.59,5,51.43,2.33,68.05-5.46,34.11-31.43,38.57-31.43,38.57s4.36,26.88,5.24,38.18c1.57,20.33-17.68,20.19-38.05,20.87h0a35.78,35.78,0,0,1-36.92-33.72l-8.4-146.2A12,12,0,0,1,213.39,97Z" style="fill:#ffbe9d"></path><path d="M290,149.45c.37-.69,4.21.83,8.76-.39s7.28-4.38,7.92-3.95c.31.18,0,1.32-1.14,2.76a12,12,0,0,1-6.16,3.85,11.59,11.59,0,0,1-7.15-.38C290.5,150.63,289.76,149.76,290,149.45Z" style="fill:#263238"></path><path d="M277.37,174.39c0-.27,2.9-.79,7.64-1.41,1.2-.13,2.34-.37,2.54-1.19s-.23-2.17-.82-3.57q-1.71-4.35-3.59-9.14c-5-13-8.59-23.72-8.07-23.92s5,10.2,10,23.22l3.44,9.19c.46,1.37,1.25,2.92.64,4.72a3,3,0,0,1-2,1.77,8.68,8.68,0,0,1-2,.29C280.35,174.62,277.39,174.65,277.37,174.39Z" style="fill:#263238"></path><path d="M280.82,230.09a86.74,86.74,0,0,1-45.74-12s12.26,23.61,46.39,20.29Z" style="fill:#eb996e"></path><path d="M275.27,187.41a8.46,8.46,0,0,0-7.61-3.13,7.73,7.73,0,0,0-5.34,2.89,4.9,4.9,0,0,0-.36,5.61c1.28,1.79,3.94,2.19,6.18,1.54a17.67,17.67,0,0,0,6-3.61,5.4,5.4,0,0,0,1.34-1.4,1.57,1.57,0,0,0,0-1.75" style="fill:#eb996e"></path><path d="M263.38,179.36c.76-.05.79,5.06,5.18,8.67s9.83,3,9.87,3.75c.07.32-1.21,1-3.51,1.07a12.77,12.77,0,0,1-8.24-2.84,11.1,11.1,0,0,1-4-7.28C262.46,180.6,263,179.33,263.38,179.36Z" style="fill:#263238"></path><path d="M305.79,123.37c-.84,1.31-4.46.19-8.72.36-4.28,0-7.84,1.28-8.74,0-.4-.63.1-1.92,1.61-3.21a11.85,11.85,0,0,1,14.07-.29C305.59,121.45,306.16,122.73,305.79,123.37Z" style="fill:#263238"></path><path d="M260.13,150.13c-.46-.72-4.46,1.21-9.44.26s-8.15-4.15-8.81-3.64c-.32.22.06,1.42,1.43,2.88a13,13,0,0,0,6.92,3.66,12.45,12.45,0,0,0,7.65-1C259.64,151.44,260.36,150.45,260.13,150.13Z" style="fill:#263238"></path><path d="M243.58,125.29c1,1.09,4.61-.23,9-.46s8.19.42,9-.79c.36-.59-.28-1.69-2-2.68a14,14,0,0,0-14.53,1C243.61,123.59,243.14,124.76,243.58,125.29Z" style="fill:#263238"></path><path d="M277.69,97s0,0,0,0Z" style="fill:#e3e3e3"></path><path d="M280.06,106.51h0Z" style="fill:#e3e3e3"></path><path d="M280,108.12v0S280.08,108.13,280,108.12Z" style="fill:#e3e3e3"></path><path d="M278.88,103s0,0,0,0Z" style="fill:#e3e3e3"></path><path d="M276.78,94.21h0l0,0Z" style="fill:#e3e3e3"></path><path d="M276.88,94.22s-.08,0-.09,0-.06.09,0,.12S276.82,94.25,276.88,94.22Z" style="fill:#e3e3e3"></path><path d="M275.33,89.16h0Z" style="fill:#e3e3e3"></path><path d="M275.05,104l0,0S275,104,275.05,104Z" style="fill:#e3e3e3"></path><path d="M275.46,90l.12,0Z" style="fill:#e3e3e3"></path><path d="M280.19,106.52h0Z" style="fill:#e3e3e3"></path><path d="M280.21,109.58l-.09,0h0Z" style="fill:#e3e3e3"></path><path d="M279.43,117.14h0Z" style="fill:#e3e3e3"></path><path d="M280,111.64h0s0-.13,0-.24l-.16,0Z" style="fill:#e3e3e3"></path><path d="M276.79,114.39l.28-.25c.25.64,0,1,.33,1.53l-.07,0c-.06.1.65,0-.06,1.09h0s.08,0,0,.1l.17-.19c.09.08.25.14.29.27a.3.3,0,0,1-.14.06l.1.3-.18.13c.12.08.54,0,.34.26.28-.14.2.1.34,0l-.13.09c.06.15.19.42.35.47a6.22,6.22,0,0,1,.81-.9c0,.23.05,0,.14,0h-.08c.06-.14.24-.17.28-.24h0a.08.08,0,0,1-.08,0s-.07,0-.06,0h0c0-.05,0-.15,0-.19l.16,0c-.31-.05.35-.71.34-.84.17-.16-.1-.28,0-.46s.21-.16.32-.31-.17.06-.2,0l.19-.23c0,.11.12,0,.18,0s.24-.48-.08-.48c.11-.25.23-.27.23-.37s-.09.12-.15.13c.12-.12,0,0-.07,0-.15-.11.45-.8.1-.78h.07c-.26,0-.5.11-.65,0l.1-.08-.13-.08a.19.19,0,0,1,.18-.06c-.15-.14,0-.38,0-.58l-.66.32c.14-.18.41-.53.18-.52l.22-.14c.38-.39-.23-.19-.12-.34l.22-.2,0,.16a2.07,2.07,0,0,1,.31-.42h0l0,0v0a.23.23,0,0,1-.25-.18c0-.17-.2-.26,0-.56l-.27,0,.12-.22.2,0c0,.19.16.54.22.78l.09,0c0-.14-.14-.29-.14-.39s.22-.21.38-.14l-.22-.06a1.44,1.44,0,0,1,0-1l-.09.06c-.08-.08-.16-.17,0-.23a1.18,1.18,0,0,1,.27-.88h-.25c0-.07.35-.23,0-.2l-.13-.12c0-.09-.15-.11,0-.24h0l0,0h0c.07-.21-.22,0-.12-.21s-.32,0-.29-.14l.33-.17c.16-.24-.2-.21-.25-.5a.7.7,0,0,1,.66-.24c-.34-.06-.22,0-.4-.15a.45.45,0,0,1,.28,0c.12-.17-.14-.07-.15-.18a4.23,4.23,0,0,1-.67,0l-.07.06c-.15-.1-.24-.21-.14-.37l.12,0-.09-.14.16,0-.09-.2,0,0s-.12-.19-.05-.3l.09,0c.22-.31-.18-.45-.27-.75h.19c.16-.13-.28,0-.22-.11l.22,0c-.31,0,0-.15.13-.25l-.28.09,0-.15c.06-.17.34-.17.5-.17l-.25-.06.25-.08c-.31,0,0-.08-.15-.19.09,0,.15,0,.18-.06l-.4-.15.19.1-.38.06c-.3-.08,0-.2-.12-.28l.13,0c-.12-.14,0-.18.09-.29s-.15.1-.21,0,.12-.06.15-.11c-.25,0-.4,0-.3-.18h.09c-.05,0-.11,0-.06-.08l.28,0-.28,0c.06-.08-.16-.13,0-.16l.06,0,0-.48.22-.05c-.31,0,.06-.27-.31-.18.19-.13-.21-.31.22-.34,0-.31-.47-.39-.34-.8.33-.2.14-.54.13-.78-.25-.43-.45-.7-.66-1.14.44-.39-.33-.66-.11-1l-.22,0c.27-.27-.18-.49.06-.84l-.15-.09s0,0-.16.07c.07-.1-.08-.24.18-.28h0c.25,0-.18-.21,0-.35l-.26.11,0-.17.06,0c-.75-.52,0-1-.65-1.51.31,0-.19-.09.13-.17.37-.25-.15-.27-.29-.38h-.06v-.23c.43,0-.38-.09,0,0,.16-.66-.33-1.35-.35-2.06l-.09,0c0-.17-.2-.35-.07-.52s-.33-.22-.36-.27c-.22-.1.11-.32.11-.25-.09-.14-.5-.19-.39-.44.33-.16-.48-.5-.09-.6h0c.21-.34-.32-.48-.14-.83h.05l-1.32-.3-1.25.5-.92.77.57,1.32-.14,1.2.77,2.64.33.13c-.39.64.36,1.18.12,1.83l.26,0c.05.16-.11.18-.15.23a16.69,16.69,0,0,1,1,4.36c-.14.16,0,.54-.12.68a2,2,0,0,1,.55,1.28h0l.09.2a.09.09,0,0,1-.07,0c.27.19.12.6.09.91h0c.28,1.67,1.05,3.13,1,4.85-.28.84.46,1.64.26,2.58C276.15,112.5,276.64,114.26,276.79,114.39Z" style="fill:#e3e3e3"></path><path d="M277.56,117h0C277.45,117,277.49,117,277.56,117Z" style="fill:#e3e3e3"></path><polygon points="279.89 112.77 279.89 112.78 280.03 112.72 279.89 112.77" style="fill:#e3e3e3"></polygon><path d="M280.38,115.15c0-.11,0-.11-.05-.09A.09.09,0,0,0,280.38,115.15Z" style="fill:#e3e3e3"></path><path d="M277.9,117.82c0,.06.06,0,.13,0l0-.09S277.92,117.78,277.9,117.82Z" style="fill:#e3e3e3"></path><path d="M279.33,117.36h.09A.06.06,0,0,0,279.33,117.36Z" style="fill:#e3e3e3"></path><path d="M272.28,100.09s0,0,0,0Z" style="fill:#e3e3e3"></path><path d="M279,98.83h0v0Z" style="fill:#e3e3e3"></path><path d="M280.07,99h0S280.07,99,280.07,99Z" style="fill:#e3e3e3"></path><path d="M276.52,99.64s0,0,0,0S276.51,99.64,276.52,99.64Z" style="fill:#e3e3e3"></path><path d="M270.33,100.62h0l0,0Z" style="fill:#e3e3e3"></path><path d="M270.34,100.53a.07.07,0,0,1,0,.09c0,.07.06.07.08,0S270.36,100.59,270.34,100.53Z" style="fill:#e3e3e3"></path><path d="M266.77,101.32v0S266.77,101.3,266.77,101.32Z" style="fill:#e3e3e3"></path><path d="M277.14,103.53l0,0A0,0,0,0,0,277.14,103.53Z" style="fill:#e3e3e3"></path><path d="M267.35,101.32v-.13A.45.45,0,0,0,267.35,101.32Z" style="fill:#e3e3e3"></path><path d="M279,98.7v0Z" style="fill:#e3e3e3"></path><path d="M281.08,99a.3.3,0,0,0,0,.1h0Z" style="fill:#e3e3e3"></path><path d="M286.37,100.31a.09.09,0,0,0,0,0v.09S286.37,100.33,286.37,100.31Z" style="fill:#e3e3e3"></path><path d="M282.52,99.33v0s-.09,0-.17,0v.15Z" style="fill:#e3e3e3"></path><path d="M284.49,102.74l-.19-.29c.45-.2.71.08,1.08-.22v.07c.07.06,0-.64.76.13v0s0-.07.07,0l-.14-.17c.06-.09.1-.25.18-.28a.33.33,0,0,1,.05.15l.21-.08.09.19c.06-.12,0-.54.18-.33-.11-.28.06-.19,0-.33l.07.13c.1,0,.29-.15.32-.31a6.29,6.29,0,0,1-.65-.87c.16.06,0,0,0-.14v.08c-.1-.06-.12-.25-.18-.29a.07.07,0,0,1,0,.05v0a.11.11,0,0,1,0,.08s0,.07,0,.06v0s-.11,0-.14,0l0-.15c0,.3-.5-.4-.59-.39-.12-.19-.2.07-.32,0s-.12-.22-.23-.34.05.18,0,.19l-.16-.19c.08,0,0-.12,0-.18s-.34-.27-.33,0c-.18-.12-.2-.25-.26-.26s.08.1.09.17c-.08-.13,0,0,0,.06s-.57-.5-.54-.16v-.06a2.54,2.54,0,0,1,0,.65l-.06-.11-.05.12a.25.25,0,0,1,0-.18c-.09.13-.26,0-.4,0l.23.67c-.13-.15-.38-.44-.37-.22l-.1-.22c-.28-.42-.13.21-.23.09l-.15-.24h.11a1.62,1.62,0,0,1-.29-.34h0a.06.06,0,0,1,0,0h0c0,.13,0,.22-.12.22s-.18.18-.4-.06v.26l-.15-.14,0-.2c.13,0,.37-.12.54-.15v-.1c-.1,0-.2.12-.27.11a.49.49,0,0,1-.11-.38l0,.2a.75.75,0,0,1-.72-.11l.05.1c-.06.07-.12.14-.16,0a.79.79,0,0,1-.62-.35V99c-.05,0-.16-.36-.14,0l-.08.12c-.06,0-.08.13-.17,0h0v0c-.15-.09,0,.22-.14.1s0,.32-.1.27l-.13-.34c-.16-.18-.14.17-.34.2a.93.93,0,0,1-.17-.67c0,.33,0,.21-.11.38a.67.67,0,0,1,0-.28c-.12-.14-.05.13-.13.13a3.83,3.83,0,0,1,0,.67l0,.07c-.06.14-.14.21-.25.1l0-.12-.09.08,0-.16-.14.07,0,0s-.14.09-.21,0v-.09c-.22-.25-.32.13-.53.18v-.18c-.1-.17,0,.28-.09.2l0-.22c0,.3-.11,0-.17-.15l.06.28-.11,0c-.12-.09-.11-.36-.11-.52l-.05.24-.05-.25c0,.3-.06,0-.13.13,0-.1,0-.15,0-.19l-.11.38.07-.17,0,.37c-.06.3-.14,0-.19.09l0-.11c-.1.1-.13-.06-.2-.13s.07.17,0,.22,0-.13-.07-.17c0,.25,0,.4-.13.29a.34.34,0,0,1,0-.09s0,.1-.05,0l0-.28,0,.27c0-.07-.09.14-.1,0V99.6l-.33,0,0-.22c0,.31-.19-.1-.13.28-.09-.2-.22.18-.24-.25-.21,0-.27.42-.55.24-.14-.35-.38-.2-.55-.21-.3.19-.49.35-.8.51-.26-.48-.47.24-.72,0l0,.21c-.18-.3-.35.12-.58-.16a.52.52,0,0,1-.07.13.39.39,0,0,1,.05.17c-.07-.08-.17,0-.2-.21v0c0-.26-.15.14-.24-.07l.07.27-.12,0,0-.06c-.39.67-.71-.17-1.08.44,0-.3-.06.17-.11-.16s-.19.12-.27.24,0,0,0,.06l-.16,0c0-.42-.07.36,0,0-.45-.26-.94.13-1.44,0l0,.1c-.13,0-.26.15-.38,0s-.16.3-.19.32c-.08.19-.22-.16-.17-.15s-.16.46-.33.32c-.09-.35-.36.4-.41,0v0c-.23-.25-.35.25-.58,0v-.05l-.26,1.25.29,1.31.5,1,1-.36.84.32,1.88-.4.1-.31c.45.47.85-.19,1.3.13l0-.26c.12,0,.13.13.16.17a8.56,8.56,0,0,1,3.1-.48c.11.16.38,0,.47.19a1,1,0,0,1,.91-.4v0l.14-.07s0,.05,0,.07c.13-.25.42-.06.63,0v0c1.18-.11,2.21-.73,3.42-.53.6.35,1.15-.31,1.82-.05C283.16,103.24,284.39,102.88,284.49,102.74Z" style="fill:#e3e3e3"></path><path d="M286.3,102.16h0C286.31,102.27,286.31,102.22,286.3,102.16Z" style="fill:#e3e3e3"></path><polygon points="283.31 99.54 283.32 99.55 283.27 99.4 283.31 99.54" style="fill:#e3e3e3"></polygon><path d="M285,99.24c-.07,0-.07,0-.06,0A.05.05,0,0,0,285,99.24Z" style="fill:#e3e3e3"></path><path d="M286.88,101.87s0-.06,0-.13l-.07,0S286.86,101.85,286.88,101.87Z" style="fill:#e3e3e3"></path><path d="M286.53,100.42v-.08S286.52,100.39,286.53,100.42Z" style="fill:#e3e3e3"></path><path d="M284,107.55a.83.83,0,1,1-.27.06" style="fill:#e0e0e0"></path><path d="M285.23,105.34a.41.41,0,1,1-.14,0" style="fill:#e0e0e0"></path><path d="M201.62,238.45S150.73,255,131.28,274.12c-14.84,14.58-21.86,60-22.67,67.31S97,429,99.4,440.34c1.28,6,7.08,15.7,12.27,23.54a10.85,10.85,0,0,0,17.77.45l21.81-29.48,21-28.32,5-110.63Z" style="fill:#5EC1FF"></path><path d="M306.63,253.39s36.18,7.12,49.39,29.46c6.4,10.81,20.72,46,21.91,74.12,3.89,91.6-4.24,101.1-4.24,101.1s3.09-20.57-18-36-24.34-25.95-24.34-25.95l7.71-71.78Z" style="fill:#5EC1FF"></path><path d="M201.62,238.45c.4,1.22,9.3,30.35,45,30.75s39.8-22.43,39.8-22.43l20.22,6.62L343.53,309l-2.62,162.73H146.25l-5.49-134.75,4.57-73.41Z" style="fill:#5EC1FF"></path><path d="M265.57,460.56A6.68,6.68,0,0,1,265,460l-1.64-1.73c-.72-.75-1.58-1.68-2.55-2.79s-2.1-2.34-3.28-3.77c-2.41-2.81-5.16-6.26-8.12-10.17s-6-8.33-9.09-13.08-5.77-9.42-8.13-13.71-4.31-8.25-5.87-11.61c-.81-1.67-1.47-3.21-2.07-4.55s-1.09-2.51-1.48-3.47l-.89-2.21a4.44,4.44,0,0,1-.28-.79,4.74,4.74,0,0,1,.37.75c.25.53.57,1.26,1,2.17s.92,2.1,1.55,3.43,1.31,2.86,2.14,4.51c1.6,3.33,3.62,7.25,6,11.54s5.1,8.9,8.14,13.66,6.14,9.14,9,13.08,5.65,7.37,8,10.22c1.16,1.44,2.27,2.69,3.22,3.81s1.79,2.07,2.48,2.84l1.56,1.8A3.73,3.73,0,0,1,265.57,460.56Z" style="fill:#263238"></path><path d="M282.25,450.73a8.06,8.06,0,0,1-.69-.49l-1.93-1.47c-1.67-1.28-4-3.2-6.92-5.63s-6.23-5.41-9.86-8.81-7.49-7.3-11.42-11.5-7.49-8.36-10.66-12.21-5.88-7.42-8.09-10.46-4-5.55-5.12-7.31c-.56-.84-1-1.52-1.33-2a6.59,6.59,0,0,1-.44-.73,4.41,4.41,0,0,1,.53.67l1.41,2c1.2,1.72,3,4.19,5.24,7.2s5,6.54,8.17,10.38,6.77,7.95,10.67,12.16,7.78,8.06,11.37,11.5,6.92,6.43,9.77,8.88,5.18,4.42,6.81,5.75l1.87,1.55A3.78,3.78,0,0,1,282.25,450.73Z" style="fill:#263238"></path><g style="opacity:0.2"><path d="M184.49,469.59c25-6.61,45.3-28.65,49.79-54.15a40,40,0,0,0,13.81,10.88c1.6-6.48-6-13.69-8.73-19.79a52.32,52.32,0,0,0,8.08-14.43c9.44-25.67,19.92-51.79,28.69-77.7.91-2.69,1.78-5.74.49-8.27s-5.77-3.16-6.67-.47Z"></path></g><g style="opacity:0.2"><path d="M329.31,462.38c-12-54.95-32.43-107.63-52.79-160.06l-2.37,12c-3.83,9.94,2.77,20.47,5.83,30.67,3.29,10.92,2.48,22.59,2.86,34A159.68,159.68,0,0,0,296,437.21c5.55,12.69,13.2,25.11,25,32.35,1.95,1.2,4.42,2.25,6.45,1.18C330.21,469.29,330,465.38,329.31,462.38Z"></path></g><path d="M168.71,406.53s-.05-.08-.11-.25l-.28-.77c-.24-.68-.53-1.69-.93-3-.78-2.6-1.87-6.38-3.2-11.06-2.65-9.35-6.24-22.29-10.18-36.58s-7.46-27.22-10-36.63-4.21-15.16-4.21-15.16a1,1,0,0,1,.11.26l.29.76c.25.68.54,1.69.94,3,.79,2.6,1.89,6.38,3.22,11,2.66,9.35,6.26,22.29,10.2,36.59Z" style="fill:#263238"></path><path d="M168.71,406.53s-.16-.08-.42-.27l-1.11-.84a14,14,0,0,0-1.8-1.27l-1.17-.72-.64-.4-.71-.34a44.16,44.16,0,0,0-16.23-4.37,75,75,0,0,0-9.31-.31c-2.87.06-5.45.27-7.61.46s-3.91.42-5.12.56l-1.39.17a1.66,1.66,0,0,1-.49,0,1.78,1.78,0,0,1,.47-.13l1.38-.26c1.2-.2,2.94-.47,5.11-.73s4.75-.48,7.63-.56a68.62,68.62,0,0,1,9.38.26A42.49,42.49,0,0,1,163,402.36l.71.37.64.41,1.16.77a13.26,13.26,0,0,1,1.77,1.35l1.05.92A2.19,2.19,0,0,1,168.71,406.53Z" style="fill:#263238"></path><path d="M344.83,294.89c.14,0-2.7,16.75-6.35,37.35s-6.72,37.29-6.86,37.26,2.7-16.74,6.35-37.35S344.69,294.87,344.83,294.89Z" style="fill:#263238"></path><g style="opacity:0.30000000000000004"><path d="M239.31,278.59,235.89,227l-65.2,59.76c5.37,3.47,11.92,4.47,18.25,5.4l28.54,4.16c6.9,1,15.23,1.47,19.46-4.07C239.8,288.46,239.62,283.29,239.31,278.59Z"></path></g><g style="opacity:0.2"><path d="M148.61,332.5c2.19,21.54,8.43,47.75,13,68.91-8.94-3.68-20.23-4.86-27.61-2.13a7.85,7.85,0,0,0-3.78,2.4,3.15,3.15,0,0,0,.15,4.12,4.67,4.67,0,0,0,3.26.7c11.79-.38,14.61-5.3,35.06,0-6.81-24.28-13.29-49.74-20.1-74"></path></g><path d="M150.89,343.74a10.62,10.62,0,0,1-1.77-.1c-.57-.05-1.26-.11-2.07-.15s-1.72-.11-2.74-.12c-2-.07-4.46,0-7.14.13a81.79,81.79,0,0,0-8.67,1.09,79.72,79.72,0,0,0-8.48,2.09c-2.57.81-4.84,1.64-6.71,2.44-1,.37-1.78.77-2.52,1.1s-1.37.62-1.88.88a9.27,9.27,0,0,1-1.62.72,12.68,12.68,0,0,1,1.53-.9c.5-.29,1.11-.62,1.84-1s1.56-.78,2.5-1.17a67.82,67.82,0,0,1,6.71-2.55,73.28,73.28,0,0,1,8.54-2.16,77.34,77.34,0,0,1,8.73-1.05c2.7-.13,5.14-.13,7.18,0,1,0,1.94.14,2.75.2s1.51.15,2.07.24A12.5,12.5,0,0,1,150.89,343.74Z" style="fill:#fff"></path><path d="M131.33,463.44s-.16-.09-.44-.32-.69-.56-1.18-1a35.52,35.52,0,0,1-3.89-4.25,38,38,0,0,1-5.95-36.1,35,35,0,0,1,2.32-5.27c.31-.61.61-1.05.79-1.36a2.14,2.14,0,0,1,.31-.45s-.32.68-.92,1.9a41.54,41.54,0,0,0-2.15,5.3,38.79,38.79,0,0,0,5.9,35.75,41,41,0,0,0,3.73,4.33C130.81,462.9,131.36,463.41,131.33,463.44Z" style="fill:#fff"></path><path d="M247.44,298.55c0,.14-23.6,2.44-52.73,5.13s-52.76,4.76-52.77,4.62,23.59-2.44,52.73-5.14S247.42,298.41,247.44,298.55Z" style="fill:#fff"></path><path d="M194.69,373.51c0,.13-7,2.1-15.68,4.39s-15.78,4-15.81,3.9,7-2.11,15.68-4.4S194.65,373.37,194.69,373.51Z" style="fill:#fff"></path><path d="M288.52,362.74c0,.15-8.73,1.59-19.54,3.22s-19.6,2.85-19.62,2.71,8.72-1.59,19.54-3.22S288.5,362.6,288.52,362.74Z" style="fill:#fff"></path><path d="M333.52,352.68a29.42,29.42,0,0,1-5.44.4,27.92,27.92,0,0,1-5.45-.12,29.42,29.42,0,0,1,5.44-.4A27.92,27.92,0,0,1,333.52,352.68Z" style="fill:#fff"></path><path d="M374.68,336.29a8.26,8.26,0,0,1-1.35-.5c-.85-.35-2.1-.84-3.64-1.43a108,108,0,0,0-12.29-3.83,106.4,106.4,0,0,0-12.68-2.26c-1.64-.19-3-.32-3.89-.4a7.5,7.5,0,0,1-1.43-.19,8,8,0,0,1,1.44,0c.93,0,2.27.09,3.92.23A87.86,87.86,0,0,1,357.52,330a86.43,86.43,0,0,1,12.31,4c1.53.63,2.75,1.18,3.58,1.59A6.39,6.39,0,0,1,374.68,336.29Z" style="fill:#fff"></path><path d="M254.71,448.76a4.66,4.66,0,0,1-.65.17l-1.87.38-6.91,1.37c-5.83,1.18-13.86,2.9-22.67,5.05s-16.73,4.35-22.44,6l-6.76,2-1.84.52a2.68,2.68,0,0,1-.65.15,2.78,2.78,0,0,1,.62-.25l1.81-.62c1.58-.53,3.87-1.26,6.71-2.13,5.69-1.74,13.61-4,22.43-6.15s16.87-3.82,22.72-4.91c2.93-.54,5.3-.95,6.94-1.21l1.9-.29A2.73,2.73,0,0,1,254.71,448.76Z" style="fill:#fff"></path><path d="M274.13,444.24a9.31,9.31,0,0,1-1.84,1.59,40.94,40.94,0,0,1-10.28,5.6,9.84,9.84,0,0,1-2.33.68,12.38,12.38,0,0,1,2.19-1c1.37-.6,3.24-1.46,5.24-2.55s3.73-2.18,5-3A14,14,0,0,1,274.13,444.24Z" style="fill:#fff"></path><path d="M305.84,432.31a6.83,6.83,0,0,1-1.4.45c-.91.26-2.23.61-3.87,1-3.27.83-7.81,1.89-12.85,3s-9.63,1.91-13,2.47c-1.67.28-3,.5-3.95.63a8.71,8.71,0,0,1-1.46.15,7.14,7.14,0,0,1,1.42-.35l3.92-.79c3.31-.65,7.88-1.56,12.92-2.62s9.59-2.06,12.88-2.8l3.9-.85A8.52,8.52,0,0,1,305.84,432.31Z" style="fill:#fff"></path><path d="M344.83,294.89c0,.15-9.62.27-21.48.27s-21.49-.11-21.49-.25,9.62-.27,21.49-.27S344.83,294.75,344.83,294.89Z" style="fill:#fff"></path><path d="M168.71,406.53a2.57,2.57,0,0,1-.62-.08l-1.76-.35-2.76-.58c-1.08-.23-2.33-.31-3.7-.5a51,51,0,0,0-21.33,1.83,46.66,46.66,0,0,0-10.77,4.94,50.66,50.66,0,0,0-7.75,5.82,59.7,59.7,0,0,0-4.6,4.67c-.51.58-.88,1.06-1.16,1.36a3.18,3.18,0,0,1-.42.46s.1-.19.34-.52.59-.83,1.09-1.43a49.2,49.2,0,0,1,4.5-4.81,48.24,48.24,0,0,1,7.75-6,46.11,46.11,0,0,1,10.86-5,49.66,49.66,0,0,1,21.54-1.7c1.37.22,2.63.33,3.7.58l2.76.67,1.73.44A4,4,0,0,1,168.71,406.53Z" style="fill:#263238"></path><g style="opacity:0.2"><path d="M328.45,362.91l3.17,7.76c3.27-20.78,7.21-37.32,9.72-58.31A120.36,120.36,0,0,0,328.45,362.91Z"></path></g><path d="M378.41,420.64a2.13,2.13,0,0,1-.38-.47c-.26-.37-.58-.84-1-1.41-.88-1.28-2.09-3.05-3.58-5.2a142,142,0,0,0-12.83-16.34,65,65,0,0,0-16.24-12.8,50.81,50.81,0,0,0-5.71-2.64c-.68-.28-1.24-.45-1.6-.6a2.17,2.17,0,0,1-.55-.24,3.25,3.25,0,0,1,.58.14c.38.12.94.26,1.64.51a43.93,43.93,0,0,1,5.82,2.51A62.51,62.51,0,0,1,361,396.86a127.86,127.86,0,0,1,12.76,16.49c1.48,2.22,2.65,4,3.44,5.3l.91,1.46A3.61,3.61,0,0,1,378.41,420.64Z" style="fill:#fff"></path><path d="M137.43,295.79a66,66,0,0,1-5.56-6.05,65.71,65.71,0,0,1-5.16-6.39,64.44,64.44,0,0,1,5.56,6A63,63,0,0,1,137.43,295.79Z" style="fill:#fff"></path><path d="M267.28,62.61c-28.3-7.27-46.21-2.38-60.46,9.4-10.21,6.85-18.41,16.77-24.29,27.66-7.69,14.27-11.76,30.18-14.91,46.08-8.06,40.57-4.61,82.62-7.52,123.48-.41,5.8,1.24,12.15,5.48,16.13,5.25,4.92,13.46,4.22,20.56,3.11,11-1.72,18.51,2.9,29.37.69,5.16-1.06,13.8,1.93,16.82-2.4,2.34-3.34,2.9-18.68,3-22.76l3.84-127.67C253.6,113,266.4,90.17,267.28,62.61Z" style="fill:#263238"></path><path d="M231.36,131.72a3.43,3.43,0,0,1,.66-.33c.44-.22,1.1-.47,1.92-.89a56.44,56.44,0,0,0,32.47-46,58.63,58.63,0,0,0,.24-7.75c0-.92-.09-1.63-.1-2.11a4.17,4.17,0,0,1,0-.74,3.32,3.32,0,0,1,.11.73c.05.48.16,1.19.2,2.11a51.46,51.46,0,0,1-.07,7.8A55.3,55.3,0,0,1,240.92,127a52.12,52.12,0,0,1-6.89,3.65c-.84.38-1.52.61-2,.79A3.78,3.78,0,0,1,231.36,131.72Z" style="fill:#263238"></path><path d="M249.12,288.69a2.31,2.31,0,0,1-.17-.37l-.44-1.1c-.19-.49-.44-1.08-.7-1.8l-.86-2.5a104,104,0,0,1-3.79-16.39c-2.22-14.08-2.26-33.75-3.11-55.38s-1.17-41.28-1.29-55.48c-.06-7.1-.06-12.84,0-16.82,0-2,0-3.49,0-4.57,0-.5,0-.89,0-1.19a2.12,2.12,0,0,1,0-.4,3.15,3.15,0,0,1,0,.4c0,.3,0,.69,0,1.19,0,1.08,0,2.61.06,4.57.05,4,.12,9.74.21,16.82.21,14.19.72,33.8,1.44,55.46s.84,41.3,3,55.35a108.45,108.45,0,0,0,3.61,16.38c.31.94.58,1.77.81,2.5l.66,1.82c.16.48.3.85.39,1.12A2.15,2.15,0,0,1,249.12,288.69Z" style="fill:#263238"></path><path d="M168.84,289.24s0-.22,0-.64,0-1.06,0-1.87c0-1.64,0-4.07.12-7.19.15-6.24.42-15.27,1-26.42s1.47-24.41,2.82-39.11c.69-7.35,1.43-15.06,2.44-23a170.84,170.84,0,0,1,4.72-24.43,87.17,87.17,0,0,1,9.82-22.83,99.58,99.58,0,0,1,14.82-17.8c5.27-5.18,10.55-9.79,15.38-14.24a160.61,160.61,0,0,0,12.85-12.92,86.65,86.65,0,0,0,8.93-12.06,57.28,57.28,0,0,0,4.92-10.21,52.16,52.16,0,0,0,1.94-6.9c.15-.8.26-1.41.34-1.84s.13-.62.13-.62,0,.21-.08.63-.16,1-.29,1.85a46.66,46.66,0,0,1-1.85,6.94A56.35,56.35,0,0,1,242,86.85,85.9,85.9,0,0,1,233.09,99a160.73,160.73,0,0,1-12.84,13c-4.82,4.46-10.09,9.09-15.34,14.27A99.32,99.32,0,0,0,190.19,144a86.54,86.54,0,0,0-9.75,22.7A171.87,171.87,0,0,0,175.73,191c-1,8-1.77,15.67-2.47,23-1.38,14.69-2.31,27.95-2.93,39.09s-1,20.17-1.17,26.41c-.09,3.1-.17,5.52-.22,7.18,0,.81-.05,1.43-.06,1.87S168.84,289.24,168.84,289.24Z" style="fill:#455a64"></path><path d="M183.17,283.34s0-.2,0-.61,0-1,0-1.81c0-1.58.08-3.92.11-6.94.07-6,0-14.75-.19-25.53s-.29-23.63.91-37.86a171.28,171.28,0,0,1,3.33-22.13c.39-1.9.91-3.79,1.38-5.71s1.06-3.82,1.7-5.73,1.3-3.81,2-5.72,1.49-3.81,2.37-5.67a100.63,100.63,0,0,1,12.41-20.56c4.73-6.17,9.75-11.74,14.56-17s9.41-10.23,13.49-15.07a138.51,138.51,0,0,0,10.55-14.08,87.6,87.6,0,0,0,6.92-12.75,67.17,67.17,0,0,0,3.54-10.36c.34-1.47.66-2.76.82-3.91s.38-2.11.44-2.9l.21-1.79c.05-.41.09-.61.09-.61s0,.21,0,.61-.08,1-.15,1.8-.21,1.77-.39,2.91-.46,2.46-.79,3.94A65.71,65.71,0,0,1,253,86.29a88.12,88.12,0,0,1-6.88,12.83,137.6,137.6,0,0,1-10.53,14.16c-4.07,4.87-8.67,9.85-13.47,15.11s-9.8,10.84-14.51,17a101.06,101.06,0,0,0-12.34,20.46c-.87,1.86-1.6,3.77-2.36,5.64s-1.39,3.79-2,5.7-1.14,3.82-1.69,5.7-1,3.8-1.38,5.69a171.89,171.89,0,0,0-3.35,22.06c-1.23,14.19-1.08,27.05-1,37.82s.15,19.51,0,25.54c-.06,3-.13,5.35-.21,6.94,0,.78-.06,1.38-.08,1.8S183.17,283.34,183.17,283.34Z" style="fill:#455a64"></path><path d="M169.59,155.94a1,1,0,0,1,0-.31c0-.24.05-.54.08-.92.08-.8.19-2,.48-3.51a55.07,55.07,0,0,1,3.78-12.45c.51-1.28,1.2-2.55,1.85-3.91s1.45-2.7,2.32-4.07a69.1,69.1,0,0,1,6-8.39,78.13,78.13,0,0,1,7.95-8.19,103.36,103.36,0,0,1,9.65-7.56c6.87-4.83,13.68-9,19.48-13.37a75.16,75.16,0,0,0,14-13.12,45.22,45.22,0,0,0,6.63-11.09c.55-1.43.95-2.55,1.17-3.33l.27-.88a1.21,1.21,0,0,1,.11-.29,1.29,1.29,0,0,1-.06.31c-.06.23-.13.52-.22.89a33.1,33.1,0,0,1-1.09,3.37,43.74,43.74,0,0,1-6.52,11.25,74.28,74.28,0,0,1-14,13.28c-5.81,4.39-12.62,8.59-19.47,13.4a105.88,105.88,0,0,0-9.61,7.52,78.27,78.27,0,0,0-7.92,8.12,68.48,68.48,0,0,0-6,8.31c-.88,1.35-1.6,2.73-2.34,4s-1.35,2.6-1.86,3.87a57.42,57.42,0,0,0-3.92,12.34c-.32,1.5-.46,2.68-.57,3.48-.06.38-.11.68-.14.91A2.38,2.38,0,0,1,169.59,155.94Z" style="fill:#455a64"></path><path d="M172.48,401l67.68-87L270,321.86s-30.7,69.06-48.27,102.46c-8.65,16.46-31.78,43.43-43.76,51.05s-21,9.16-31,3.67-16.46-16.47-16.46-16.47L172.48,401Z" style="fill:#ffbe9d"></path><path d="M285.16,330s-4.52-1.08-5.81-7.75-2.48-33.78-2.48-33.78l1-75s-.24-5.23,7.29-4.58l-.2,7.28,3.63-.4s1.08,19.15,2.16,28.4,4.09,32.06,7.1,39.8S308.51,314,308.51,314" style="fill:#ffbe9d"></path><path d="M308.51,314s-.07-.15-.18-.46l-.51-1.39-1.9-5.39c-1.67-4.68-4.05-11.51-7.18-20a60.24,60.24,0,0,1-2.29-6.73c-.64-2.39-1.16-4.92-1.69-7.55-1-5.25-1.92-10.93-2.77-16.95s-1.69-12.37-2.22-19-1-13.6-1.44-20.77l.29.24-3.63.41-.3,0v-.3c.06-2.3.13-4.78.2-7.28l.23.26a10.36,10.36,0,0,0-4,.38,4.24,4.24,0,0,0-2.79,2.77,4.44,4.44,0,0,0-.19,1.46l0,1.55c0,1,0,2.06,0,3.08q0,3.07-.09,6.12c-.05,4-.11,8-.16,11.94-.11,7.84-.22,15.4-.32,22.59s-.2,14-.3,20.45q-.06,4.8-.12,9.25.21,4.46.41,8.54c.28,5.43.57,10.35.89,14.66.17,2.16.32,4.16.51,6a40.23,40.23,0,0,0,.72,5,10.35,10.35,0,0,0,3.44,5.9,7.56,7.56,0,0,0,1.53.95c.38.17.58.24.58.24a2.67,2.67,0,0,1-.6-.19,7.06,7.06,0,0,1-1.58-.92,10.38,10.38,0,0,1-3.57-5.93,40.75,40.75,0,0,1-.76-5c-.21-1.84-.38-3.85-.56-6-.35-4.31-.66-9.23-1-14.66q-.21-4.08-.44-8.54c0-3,.06-6.07.09-9.27.08-6.4.16-13.24.25-20.44s.19-14.75.29-22.59q.07-5.86.15-11.95,0-3,.09-6.11c0-1,0-2,0-3.09l0-1.55a4.67,4.67,0,0,1,.21-1.61,4.73,4.73,0,0,1,3.12-3.11,10.64,10.64,0,0,1,4.24-.4h.24v.25c-.07,2.5-.14,5-.2,7.29l-.29-.27,3.63-.4.27,0,0,.27c.41,7.16.87,14.1,1.41,20.76s1.36,13,2.18,19,1.72,11.69,2.72,16.94c.51,2.62,1,5.14,1.65,7.53a62.6,62.6,0,0,0,2.25,6.7c3.09,8.48,5.41,15.33,7,20l1.82,5.41.46,1.41C308.47,313.83,308.51,314,308.51,314Z" style="fill:#eb996e"></path><path d="M240.16,314s15.55-30.34,22.35-57.12a274.38,274.38,0,0,0,8-49.79s6-.24,6.23,5.93c0,0,4.84.47,4.67,10s0,12.33,0,12.33a52.14,52.14,0,0,1,2.21,15.48c0,8.53-2,26.89-4,42.61-.93,7.07-5.55,25.42-9.58,28.74a63.61,63.61,0,0,1-7.47,5.33" style="fill:#ffbe9d"></path><path d="M262.51,327.45s.13-.1.4-.27l1.2-.79c1.05-.71,2.59-1.78,4.48-3.27a9.83,9.83,0,0,0,2.76-2.86,29.2,29.2,0,0,0,2.08-4.3A94.87,94.87,0,0,0,277,304.73c2.42-8.46,3.29-19,4.64-30.75.62-5.88,1.22-12.1,1.57-18.6a56.93,56.93,0,0,0-2.07-20v-.06c-.13-3.86-.07-7.75,0-11.71a20.23,20.23,0,0,0-.57-5.86,8.6,8.6,0,0,0-1.22-2.64,4.77,4.77,0,0,0-2.24-1.74,2.16,2.16,0,0,0-.39-.09l-.23,0V213a5.79,5.79,0,0,0-1.77-4.21,6.44,6.44,0,0,0-4.19-1.47l.25-.25c-.46,7.85-1.4,15.44-2.51,22.71s-2.47,14.23-4,20.78a223.55,223.55,0,0,1-10.73,33.87c-3.71,9.37-7.11,16.73-9.5,21.79-1.2,2.52-2.16,4.47-2.82,5.77-.33.65-.59,1.14-.77,1.49a5,5,0,0,1-.28.49l.24-.52.72-1.5c.63-1.34,1.55-3.3,2.74-5.81,2.33-5.08,5.68-12.46,9.34-21.84a226.25,226.25,0,0,0,10.6-33.84c1.49-6.55,2.82-13.49,3.94-20.75s2-14.85,2.48-22.66v-.25h.24a6.9,6.9,0,0,1,4.55,1.6,6.27,6.27,0,0,1,2,4.58l-.23-.25a2.44,2.44,0,0,1,.5.12,5.25,5.25,0,0,1,2.5,1.92,9.09,9.09,0,0,1,1.3,2.81,20.74,20.74,0,0,1,.59,6c-.05,4-.12,7.87,0,11.68v-.07a57.15,57.15,0,0,1,2.06,20.19c-.35,6.52-1,12.74-1.6,18.63s-1.32,11.44-2,16.61a99.25,99.25,0,0,1-2.78,14.18,92.24,92.24,0,0,1-3.66,11.23,28.63,28.63,0,0,1-2.13,4.33l-.63.9c-.22.28-.49.52-.72.77-.49.46-1,.83-1.49,1.21-1.92,1.48-3.47,2.52-4.54,3.2l-1.22.76C262.66,327.38,262.51,327.45,262.51,327.45Z" style="fill:#eb996e"></path><path d="M281.61,235.72a4.49,4.49,0,0,0-1.24-.62,3.79,3.79,0,0,0-3.29,1.56l0-.11c0,1.85,0,4.07,0,6.54s.15,5.28,0,8.22a59.91,59.91,0,0,1-2.36,14.07c-.51,1.75-1,3.14-1.38,4.09a9.42,9.42,0,0,1-.65,1.45,9.94,9.94,0,0,1,.45-1.51c.31-1,.77-2.37,1.23-4.13a66.64,66.64,0,0,0,2.19-14c.17-2.91,0-5.69.07-8.2s.07-4.69.09-6.54v-.07l0,0c1.17-1.26,2.64-1.82,3.61-1.52a2.27,2.27,0,0,1,.94.54C281.54,235.62,281.62,235.71,281.61,235.72Z" style="fill:#eb996e"></path><path d="M277,213.06a3.05,3.05,0,0,1-.77.06,13.35,13.35,0,0,0-2.21.15l.1-.13a94.46,94.46,0,0,1,.33,9.58,119.2,119.2,0,0,1-1.09,14.08,137.29,137.29,0,0,1-3.78,18.5c-.63,2.34-1.23,4.2-1.65,5.48l-.51,1.47a1.86,1.86,0,0,1-.22.5,3.35,3.35,0,0,1,.12-.53l.41-1.5c.37-1.3.91-3.17,1.5-5.51a162.3,162.3,0,0,0,3.62-18.48,134.09,134.09,0,0,0,1.16-14c.12-4.08,0-7.4-.13-9.55v-.11l.1,0a11.48,11.48,0,0,1,2.25,0A3.81,3.81,0,0,1,277,213.06Z" style="fill:#eb996e"></path><path d="M281.06,219.09c-.06,0,0-.4.38-.9a5.07,5.07,0,0,1,1.75-1.57,5.14,5.14,0,0,1,2.26-.64c.6,0,1,.1,1,.16a13.2,13.2,0,0,0-3,.94A12.65,12.65,0,0,0,281.06,219.09Z" style="fill:#eb996e"></path><path d="M283.58,327.86S294.82,408.75,311,444s32.82,47.48,48.75,32.5,13.84-25.11,13.84-25.11-2.61-22.33-15.72-34.5S338,387.13,338,387.13s-35.59-88.78-35.94-88.58L282.7,305.6Z" style="fill:#ffbe9d"></path></g></svg>