<svg width="751" height="501" viewBox="0 0 751 501" fill="none" xmlns="http://www.w3.org/2000/svg">
<path d="M750.5 0.5H0.5V500.5H750.5V0.5Z" fill="white" stroke="black" stroke-miterlimit="10"/>
<path d="M143.07 130.17V214.39" stroke="#2A272D" stroke-width="1.9882" stroke-miterlimit="10"/>
<path d="M203.99 130.17V214.39" stroke="#2A272D" stroke-width="1.9882" stroke-miterlimit="10"/>
<path d="M107.05 156.18C107.05 156.18 118.74 153.53 120.5 161.14C122.02 167.67 106.12 167.42 106.12 167.42L71.16 167.63C71.16 167.63 57.99 169.15 51.48 153.96C44.97 138.77 38.7 98.99 38.7 98.99C38.7 98.99 37.76 93.52 42.32 92.72C47.68 91.78 48.73 103.36 48.73 103.36C48.73 103.36 56.83 152.46 68.59 154.86C70.4 155.23 71.84 156.6 73.69 156.58L107.05 156.18Z" fill="#FFEEE3"/>
<path d="M138.12 116.52L149.16 115.76C150.06 115.7 150.92 116.11 151.43 116.84L157.6 126.17L152.35 126.42L149.39 121.87C149.39 121.87 140.86 124 137.71 121.87L138.12 116.52Z" fill="#F2C09E"/>
<path d="M93.65 86.29L108.4 113.7L139.05 114.68V124.76L106.68 126.18C102.4 126.37 98.34 124.32 95.94 120.77L81.21 94.32L93.65 86.29Z" fill="#EFC375"/>
<path d="M139.05 114.67V124.75L135.63 124.9V114.56L139.05 114.67Z" fill="#F7E5DA"/>
<path d="M122.99 195.92L124.72 208.04L133.44 207.5L132.19 194.99L122.99 195.92Z" fill="#FCC9A7"/>
<path d="M122.77 206.81C122.96 206.24 123.64 206.01 124.13 206.36C125.09 207.04 126.78 207.85 129.21 207.54C131.74 207.22 132.63 205.87 132.94 204.92C133.1 204.42 133.64 204.15 134.13 204.34L149.85 210.5C150.81 210.87 151.57 211.61 151.98 212.55C152.36 213.43 151.73 214.42 150.76 214.44L124.14 214.83C123.09 214.85 122.25 213.98 122.29 212.93L122.48 207.79C122.48 207.7 122.5 207.62 122.53 207.54L122.77 206.81Z" fill="#1F252A"/>
<path d="M96.5 83.94L99 87.95C99.16 88.33 99.23 89.25 98.54 89.59L97.57 90.29L95.49 87.11L96.5 83.94Z" fill="#FFEEE3"/>
<path d="M91.84 88.18L91.05 87.8C88.45 86.53 87.37 83.39 88.64 80.79L97.08 63.51L106.45 68.09L96.7 87.44C95.66 89.59 93.99 89.23 91.84 88.18Z" fill="#FCC9A7"/>
<path d="M113.44 71.5C110.69 77.12 103.9 79.46 98.28 76.71C92.66 73.96 90.32 67.18 93.07 61.55C95.82 55.93 102.6 53.59 108.23 56.34C113.86 59.09 116.19 65.88 113.44 71.5Z" fill="#FCC9A7"/>
<path d="M99.76 82.68C97.09 81.38 95.98 78.15 97.29 75.48L102.05 65.73L113.53 71.34L109.65 79.29C107.85 82.95 103.42 84.48 99.76 82.68Z" fill="#FCC9A7"/>
<path d="M112.04 73.63L112.66 77.99C112.71 78.68 111.98 79.13 111.34 78.82L108.52 78.05L112.04 73.63Z" fill="#FCC9A7"/>
<path d="M102.1 71.45C102.1 71.45 106.07 71.71 106.72 65.58C106.72 65.58 113.62 69.98 116.43 68.23C116.43 68.23 117.29 50.89 102.96 51.5C88.63 52.11 87.51 67.58 87.51 67.58L95.55 74.84L102.1 71.45Z" fill="#1C2226"/>
<path d="M102.67 71.7C101.92 73.25 100.05 73.89 98.5 73.13C96.96 72.37 96.31 70.51 97.07 68.96C97.82 67.41 99.69 66.77 101.24 67.53C102.78 68.29 103.42 70.15 102.67 71.7Z" fill="#FCC9A7"/>
<path d="M93.92 69.4L91.79 74.37C91.79 74.37 96.47 78.12 98.83 73.29L95.43 72.33L93.92 69.4Z" fill="#1C2226"/>
<path d="M106.72 65.58C106.72 65.58 116.07 72.8 119.76 66.75C122.7 61.92 119.43 58.79 114.71 59.57C112.67 59.91 111.66 58.53 110.06 57.44L106.72 65.58Z" fill="#1C2226"/>
<path d="M98.32 92.71C98.32 92.71 98.11 88.3 96.71 86.77C95.31 85.24 87.85 81.02 87.85 81.02C87.85 81.02 77.12 84.13 70.53 96.39C65.4 105.94 60.57 130.11 60.57 130.11L91.53 134.6C94.2 116.54 99.2 108.31 98.32 92.71Z" fill="#FFD686"/>
<path d="M88.37 80.17L87.08 80.75C86.62 80.96 86.52 81.58 86.9 81.92L95.08 89.2C95.41 89.5 95.93 89.41 96.16 89.03L97.08 87.44C97.25 87.14 97.18 86.76 96.91 86.54L89.09 80.28C88.89 80.1 88.61 80.06 88.37 80.17Z" fill="#FFEEE3"/>
<path d="M134.71 118.16L145.75 117.4C146.65 117.34 147.51 117.75 148.02 118.48L153.68 126.53L148.39 127.21L145.98 123.5C145.98 123.5 137.45 125.63 134.3 123.5L134.71 118.16Z" fill="#FCC9A7"/>
<path d="M87.38 88.33L104.04 116.44L135.64 117.31V126.4L101.54 127.89C98.34 128.03 95.29 126.5 93.49 123.84L74.94 96.36L87.38 88.33Z" fill="#FFD686"/>
<path d="M135.64 117.31V126.39L132.22 126.54V117.31H135.64Z" fill="#FFEEE3"/>
<path d="M60.57 130.11L121.47 138.94C126.13 139.62 129.73 143.39 130.18 148.08L134.72 199.95L121.12 200.83L114.58 155.87L76.34 156.86C65.96 156.86 58 147.64 59.51 137.37L60.57 130.11Z" fill="#54585A"/>
<path d="M168.51 126.18H136.39V128.26H168.51V126.18Z" fill="#2A272D"/>
<path d="M168.52 128.26L178.91 97.91L176.73 97.39L166.54 126.54L168.52 128.26Z" fill="#2A272D"/>
<path d="M99.25 82.4C99.25 82.4 96.36 80.69 96.36 77.09C96.36 77.09 94.56 80.99 98.23 84.42L99.25 82.4Z" fill="#F2C09E"/>
<path d="M51.84 216.35C52.32 216.35 52.76 216.02 52.89 215.53L68.79 152.84C70.11 147.65 74.76 144.02 80.12 144.02C85.32 144.02 89.94 147.51 91.36 152.51C96.92 172.1 109.86 214.84 109.99 215.27C110.16 215.84 110.77 216.17 111.34 215.99C111.91 215.82 112.24 215.21 112.06 214.64C111.93 214.21 98.99 171.49 93.44 151.92C91.76 145.99 86.28 141.85 80.11 141.85C73.76 141.85 68.24 146.15 66.68 152.3L50.78 215C50.63 215.58 50.98 216.17 51.56 216.32C51.66 216.34 51.75 216.35 51.84 216.35Z" fill="#1F252A"/>
<path d="M93.5 123.83L83.95 109.7" stroke="#EFC375" stroke-width="0.7847" stroke-miterlimit="10" stroke-linecap="round" stroke-linejoin="round"/>
<path d="M214.51 128.26H131.3V132.01H214.51V128.26Z" fill="#FFEEE3"/>
<path d="M143.07 141.12H203.99" stroke="#2A272D" stroke-width="1.9882" stroke-miterlimit="10"/>
<path d="M99.1 107.41L89.95 92.66" stroke="#EFC375" stroke-width="0.7847" stroke-miterlimit="10" stroke-linecap="round" stroke-linejoin="round"/>
<path d="M59.6705 433.726H90.6405V381.986H59.6705L59.6705 433.726Z" fill="#B2B2B2"/>
<path d="M90.5179 433.726H121.488V381.986H90.5179V433.726Z" fill="#D1D1D1"/>
<path d="M93.3 333.06L97.03 350.92L85.38 352.42C85.38 352.42 84.37 333.86 85.38 333.76C86.39 333.67 93.3 333.06 93.3 333.06Z" fill="#A8754B"/>
<path d="M82.4 315.12C82.4 315.12 94.04 316.76 96.13 334.47C96.13 334.47 92.42 338.46 87.69 337.23L82.4 315.12Z" fill="#FFD686"/>
<path d="M77.35 314.51C77.35 314.51 66.01 313.39 62.02 321.38C58.02 329.37 69.68 337.69 65.68 356L90.82 354.67V338.52C90.82 338.52 95.4 331.84 88.91 324.68C88.91 324.68 88.52 313.8 77.35 314.51Z" fill="#FFD686"/>
<path d="M114.75 358.59C114.75 358.59 122.9 355.57 125.09 363.48C127.28 371.38 136.36 423.03 136.36 423.03H129.08L124.8 402.5C124.8 402.5 118.76 395.77 116.91 381.48L91.51 378.45L114.75 358.59Z" fill="#B5845B"/>
<path d="M98.09 377.49C98.09 377.49 102.41 377.37 110.08 374.93C117.75 372.48 123.22 375.07 120.2 383.71C117.18 392.34 101.92 432.34 101.92 432.34L96.14 430.61L101.13 404.71C101.13 404.71 102.3 391.86 107.72 384.33C107.72 384.33 96.32 384.9 92.42 384.3C88.54 383.71 98.09 377.49 98.09 377.49Z" fill="#A8754B"/>
<path d="M65.68 356C65.68 356 56.46 367.59 67.55 378.97C67.55 378.97 73.26 385.62 98.43 384.58C98.43 384.58 105.03 362.3 119.07 356.31L90.01 352.42L65.68 356Z" fill="#0C2C40"/>
<path d="M77.97 284.92C77.97 284.92 80.97 272.71 70.58 272.64C62.89 272.59 60.6 281.78 70.03 287.93L77.97 284.92Z" fill="#190D08"/>
<path d="M69.68 290.15C69.68 290.15 67.8 285.35 73.16 282.92C78.52 280.49 80.23 286.24 80.23 286.24L69.68 290.15Z" fill="#FD6C75"/>
<path d="M90.04 301.07C90.04 301.07 97.78 296.49 89.41 287.29C84.18 281.54 75.02 281.86 69.92 287.56C64.82 293.26 69.63 303.31 69.63 303.31L73.1 297.54L76.14 293.06L80.49 291.32L83.9 291.56L86.79 291.93L89.12 292.91L90.04 301.07Z" fill="#27160C"/>
<path d="M83.7181 304.771L75.0191 303.654L73.2584 317.362L81.9574 318.479L83.7181 304.771Z" fill="#B5845B"/>
<path d="M74.11 307.73C74.11 307.73 75.05 312.72 79.06 313.73C80.31 314.04 81.67 313.68 82.43 312.65C82.64 312.37 82.79 312.05 82.84 311.69C83.03 310.25 79.23 307.73 79.23 307.73H74.11Z" fill="#A8754B"/>
<path d="M80.24 311.28L79.79 311.22C74.8 310.58 71.27 306.01 71.91 301.02L72.42 297.06C73.06 292.07 77.63 288.54 82.62 289.18L83.07 289.24C88.06 289.88 91.59 294.45 90.95 299.44L90.44 303.4C89.8 308.39 85.23 311.92 80.24 311.28Z" fill="#B5845B"/>
<path d="M72.89 300.03C72.89 300.03 79.15 297.99 78.99 290.96C78.99 290.96 79.39 285.72 73.91 290.57C68.43 295.42 72.89 300.03 72.89 300.03Z" fill="#27160C"/>
<path d="M74.27 301.95C74.05 303.63 72.52 304.82 70.83 304.6C69.15 304.38 67.96 302.85 68.18 301.17C68.4 299.49 69.93 298.3 71.62 298.52C73.3 298.73 74.49 300.27 74.27 301.95Z" fill="#B5845B"/>
<path d="M76.28 296.51L76 298.73C75.36 301.86 74.04 300.91 73.56 299.56L76.28 296.51Z" fill="#27160C"/>
<path d="M91.91 295.38C91.91 295.38 85.52 300.17 76.15 293.07C69.69 288.18 79.46 286.42 79.46 286.42L88.57 288.3L91.91 295.38Z" fill="#27160C"/>
<path d="M73.27 317.35C73.27 317.35 78.74 327.11 82.62 324.11C86.81 320.87 77.35 314.51 77.35 314.51L73.27 317.35Z" fill="#B5845B"/>
<path d="M75.69 337.23C75.69 337.23 79.07 343.46 81.38 348.35L106.02 346.93C106.02 346.93 110.91 342.93 114.74 346.31L110.96 350.85L80.11 357.68C78.93 357.94 77.7 357.6 76.83 356.78C74.1 354.2 68.16 348.19 65.28 342.06L75.69 337.23Z" fill="#B5845B"/>
<path d="M144.08 327.62H113.8C112.8 327.62 111.94 328.32 111.74 329.29L106.04 356.04C105.76 357.35 106.76 358.59 108.1 358.59H138.89C139.9 358.59 140.77 357.87 140.96 356.88L146.16 330.13C146.4 328.83 145.4 327.62 144.08 327.62Z" fill="#B2B2B2"/>
<path d="M145.82 327.62H115.54C114.54 327.62 113.68 328.32 113.48 329.29L107.78 356.04C107.5 357.35 108.5 358.59 109.84 358.59H140.63C141.64 358.59 142.51 357.87 142.7 356.88L147.9 330.13C148.14 328.83 147.15 327.62 145.82 327.62Z" fill="#D1D1D1"/>
<path d="M106.84 356.31H86.15C85.52 356.31 85.01 356.82 85.01 357.45C85.01 358.08 85.52 358.59 86.15 358.59H107.24L106.84 356.31Z" fill="#B2B2B2"/>
<path d="M127.07 342.41C127.07 344.23 128.55 345.71 130.37 345.71C132.19 345.71 133.67 344.23 133.67 342.41C133.67 340.59 132.19 339.11 130.37 339.11C128.55 339.11 127.07 340.58 127.07 342.41Z" fill="white"/>
<path d="M65.28 317.49C64.87 317.67 51.3 324.34 64.65 345.01C64.65 345.01 73.18 345.15 78.12 338.8C78.13 338.8 76.49 312.57 65.28 317.49Z" fill="#FFD686"/>
<path d="M94.57 429.48C94.75 428.94 95.34 428.74 95.74 429.09C96.52 429.78 97.92 430.63 99.98 430.42C102.13 430.21 102.93 428.94 103.24 428.03C103.4 427.55 103.86 427.31 104.27 427.51L117.29 434.05C118.08 434.45 118.7 435.19 119 436.11C119.29 436.98 118.71 437.91 117.89 437.89L95.4 437.27C94.51 437.25 93.84 436.38 93.91 435.37L94.28 430.41C94.29 430.33 94.3 430.25 94.33 430.17L94.57 429.48Z" fill="#FD6C75"/>
<path d="M127.4 420.92C127.44 420.35 127.95 420 128.42 420.24C129.35 420.7 130.92 421.15 132.86 420.41C134.87 419.64 135.32 418.21 135.38 417.25C135.41 416.75 135.79 416.39 136.24 416.48L150.52 419.39C151.39 419.57 152.18 420.12 152.72 420.93C153.23 421.69 152.91 422.74 152.12 422.93L130.25 428.22C129.39 428.43 128.51 427.77 128.32 426.77L127.38 421.89C127.36 421.81 127.36 421.73 127.36 421.64L127.4 420.92Z" fill="#FD6C75"/>
<path d="M436.15 65.36C436.48 62.48 439.07 60.41 441.95 60.74C444.83 61.07 446.9 63.66 446.57 66.54C446.24 69.42 443.65 71.49 440.77 71.16C437.89 70.84 435.82 68.24 436.15 65.36Z" fill="#FCC9A7"/>
<path d="M439.36 64.16L433.31 76.35L438.27 78.98L443.23 70.15L439.36 64.16Z" fill="#FCC9A7"/>
<path d="M399.33 84.75L426.52 99.04C427.6 99.66 428.98 99.24 429.53 98.12L442.14 75.23L434.87 70.5L424.74 87.45L405.6 75.36C402.76 73.17 398.63 74.14 397.06 77.36C395.77 80.05 396.76 83.27 399.33 84.75Z" fill="#F9A772"/>
<path d="M403.69 154.95C403.69 154.95 396.89 166.66 392.98 174.24C392.37 175.42 391.37 176.29 390.48 177.28C387.8 180.26 385.26 183.48 382.29 189.23C377.87 197.8 370.5 215.08 370.5 215.08L365.35 213.17L370.9 194.15C370.9 194.15 371.83 177.43 382.55 168.46C382.55 168.46 385.46 163.4 387.96 153.54L403.69 154.95Z" fill="#F2C09E"/>
<path d="M413.21 149.89C413.21 149.89 406.15 194.58 407.33 216.55L401.23 216.77L399.44 197.47C399.44 197.47 394.12 184.2 399.51 172.67L397.02 146.73L413.21 149.89Z" fill="#FCC9A7"/>
<path d="M395.58 66.09C395.58 66.09 388.79 72.15 390.51 81.12C392.23 90.1 397.23 93.96 396.39 99.88L415.78 99.18L415.38 88.19C415.38 88.19 421.68 83.38 414.93 75.71L409.12 69.09L403.91 69.76L395.58 66.09Z" fill="#F9A772"/>
<path d="M405.67 64.6L409.6 66.89L412.23 71.32L406.81 69.66L405.67 64.6Z" fill="#F7EBE7"/>
<path d="M403.92 69.76C402.75 69.75 401.51 69.27 400.59 68.79C399.68 68.32 399.12 67.37 399.12 66.34L399.31 47.54L407.53 47.58L407.34 66.14C407.33 68.29 405.79 69.77 403.92 69.76Z" fill="#FCC9A7"/>
<path d="M407.39 60.94L404 56.14C404 56.14 401.92 61.62 407.37 63.32L407.39 60.94Z" fill="#F2C09E"/>
<path d="M414.79 47.62C414.76 53.22 410.2 57.73 404.61 57.71C399.01 57.68 394.49 53.12 394.52 47.53C394.55 41.93 399.11 37.41 404.71 37.44C410.3 37.47 414.82 42.02 414.79 47.62Z" fill="#FCC9A7"/>
<path d="M408.12 61C405.46 60.99 403.32 58.82 403.33 56.16L403.36 49.22L414.79 47.62L414.76 54.42C414.74 58.07 411.77 61.01 408.12 61Z" fill="#FCC9A7"/>
<path d="M414.48 49.89L416.68 53.16C416.99 53.69 416.58 54.34 415.93 54.34L413.36 54.81L414.48 49.89Z" fill="#FCC9A7"/>
<path d="M398.99 62.86L409.13 69.1L406.93 73.43L395.58 66.1C395.58 66.09 397 63.61 398.99 62.86Z" fill="#F7EBE7"/>
<path d="M396.4 99.89L395.01 104.63L416.07 103.87L415.78 99.19L396.4 99.89Z" fill="#F7EBE7"/>
<path d="M416.07 103.87L417.03 157.16C417.03 157.16 395.81 161.34 384.13 154.1C384.13 154.1 388.69 136.96 387.84 129.95C386.26 117.1 388.07 111.55 395.03 104.62L416.07 103.87Z" fill="#E49258"/>
<path d="M399.36 213.89C399.51 213.36 400.07 213.14 400.48 213.46C401.27 214.1 402.67 214.85 404.67 214.56C406.75 214.25 407.48 212.99 407.73 212.09C407.86 211.62 408.3 211.36 408.71 211.54L421.66 217.32C422.45 217.67 423.08 218.37 423.42 219.25C423.74 220.08 423.22 221.01 422.42 221.03L400.52 221.44C399.66 221.46 398.96 220.64 398.99 219.66L399.13 214.82C399.13 214.74 399.14 214.66 399.17 214.58L399.36 213.89Z" fill="#1F252A"/>
<path d="M364.5 209.47C364.79 209 365.39 208.93 365.69 209.35C366.28 210.18 367.43 211.27 369.44 211.52C371.52 211.78 372.56 210.75 373.05 209.95C373.3 209.53 373.79 209.4 374.14 209.68L385.1 218.68C385.77 219.23 386.19 220.06 386.29 221.01C386.38 221.9 385.63 222.66 384.86 222.46L363.63 217.05C362.8 216.84 362.34 215.87 362.62 214.93L364.04 210.3C364.06 210.22 364.1 210.15 364.14 210.08L364.5 209.47Z" fill="#1F252A"/>
<path d="M403.37 52L407.68 51.84C407.68 51.84 408.05 48.1 408.89 47.2C409.73 46.3 410.16 42.3 410.16 42.3C410.16 42.3 410.93 44.79 410.34 47.37L416.56 47.15C416.56 47.15 417.91 36.19 404.23 35.66C390.55 35.13 390.92 48.07 393.61 50.64C395.75 52.68 399.22 56.31 399.22 56.31C399.22 56.31 399.06 52.15 403.37 52Z" fill="#4C1827"/>
<path d="M406.49 50.67C406.55 52.27 405.3 53.61 403.7 53.67C402.1 53.73 400.76 52.48 400.7 50.88C400.64 49.28 401.89 47.94 403.49 47.88C405.09 47.83 406.43 49.07 406.49 50.67Z" fill="#FCC9A7"/>
<path d="M395.51 52.73C395.64 56.34 392.82 59.38 389.21 59.51C385.6 59.64 382.56 56.82 382.43 53.2C382.3 49.59 385.12 46.55 388.73 46.42C392.35 46.29 395.38 49.11 395.51 52.73Z" fill="#4C1827"/>
<path d="M402.76 111.07C405.61 111.57 407.52 114.28 407.03 117.14C406.53 119.99 403.82 121.9 400.96 121.41C398.11 120.91 396.2 118.2 396.69 115.34C397.19 112.48 399.91 110.57 402.76 111.07Z" fill="#FCC9A7"/>
<path d="M404.54 111.73L392.73 104.97L389.81 109.76L398.33 115.24L404.54 111.73Z" fill="#FCC9A7"/>
<path d="M392.05 70.45L373.1 95.35C372.3 96.31 372.47 97.74 373.48 98.48L393.96 114.28L399.88 107.95L384.81 95.63L400.19 78.28C402.84 75.87 402.61 71.63 399.71 69.52C397.3 67.76 393.96 68.18 392.05 70.45Z" fill="#F9A772"/>
<path d="M448.5 53.67L442.84 68.7C442.69 69.11 442.24 69.32 441.83 69.19L434.28 66.81C433.83 66.67 433.59 66.17 433.77 65.73L439.62 50.9C439.78 50.51 440.2 50.3 440.61 50.42L447.97 52.59C448.43 52.73 448.67 53.22 448.5 53.67Z" fill="#1C2226"/>
<path d="M446.59 54.31L442.32 66.45C442.22 66.73 441.92 66.89 441.63 66.82L435.97 65.35C435.63 65.26 435.45 64.9 435.58 64.58L440.43 52.33C440.54 52.05 440.85 51.9 441.14 51.99L446.22 53.58C446.53 53.67 446.7 54 446.59 54.31Z" fill="#EFEFEF"/>
<path d="M214.79 430.05L210.84 439.54L204.4 436.12L208.33 426.81L214.79 430.05Z" fill="#FCC9A7"/>
<path d="M213.01 438.98C213.01 438.41 212.52 438.04 212.03 438.25C211.07 438.66 209.49 439.01 207.6 438.16C205.64 437.28 205.28 435.83 205.27 434.88C205.27 434.38 204.91 434 204.46 434.07L190.09 436.14C189.22 436.27 188.4 436.77 187.82 437.55C187.27 438.28 187.53 439.34 188.3 439.58L209.75 446.1C210.59 446.36 211.51 445.75 211.76 444.77L212.97 439.97C212.99 439.89 213 439.81 213 439.73L213.01 438.98Z" fill="#1F252A"/>
<path d="M273.02 407.03L282.02 411.99L277.93 418.02L269.1 413.1L273.02 407.03Z" fill="#FCC9A7"/>
<path d="M281.7 409.77C281.13 409.71 280.71 410.16 280.86 410.66C281.16 411.65 281.34 413.27 280.29 415.05C279.2 416.9 277.72 417.11 276.77 417C276.27 416.95 275.86 417.26 275.87 417.71L276.36 432.22C276.39 433.1 276.8 433.97 277.51 434.63C278.17 435.25 279.26 435.12 279.58 434.37L288.39 413.76C288.74 412.95 288.23 411.97 287.29 411.62L282.65 409.89C282.57 409.86 282.49 409.84 282.41 409.83L281.7 409.77Z" fill="#1F252A"/>
<path d="M219.55 338.37L223.02 360.63L240.56 392.16L270.76 418.42L277.8 405.97L253.85 383.63L239.8 338.75L219.55 338.37Z" fill="#092330"/>
<path d="M248.05 337.1C248.05 337.1 251.54 343.7 246.12 354.24L229.29 386.36L216.46 435.04L203.72 430.59L212.87 381.36L229.09 342.94L219.55 338.37L248.05 337.1Z" fill="#0C2C40"/>
<path d="M211.36 274.47C213.58 276.9 217.35 277.07 219.77 274.86C222.2 272.64 222.37 268.87 220.16 266.44C217.94 264.01 214.18 263.84 211.74 266.05C209.31 268.28 209.14 272.04 211.36 274.47Z" fill="#FCC9A7"/>
<path d="M206.6 277.53L211.78 271.29L215.91 275.44L211.05 281.39L206.6 277.53Z" fill="#FCC9A7"/>
<path d="M218.29 262.92L213.54 269.28C212.92 270.11 212.94 271.26 213.59 272.06L217.44 276.81C218.34 277.92 220.02 277.93 220.93 276.84L226.3 270.45C227.04 269.57 227 268.27 226.21 267.43L221.74 262.71C220.78 261.7 219.13 261.79 218.29 262.92Z" fill="#1C2226"/>
<path d="M223.2 285.34L204.37 294.79L214.71 278.84L207.89 272.94L186.33 302.48C184.37 305.02 185.13 308.72 187.94 310.27C189.37 311.06 191.09 311.14 192.59 310.48L220.51 299.39L223.2 285.34Z" fill="#F7ECE7"/>
<path d="M216.46 294.41C216.46 294.41 219.79 320.52 219.55 338.37C219.55 338.37 229.54 342.77 250.72 336.34L245.48 287.79L235.28 284.36L223.2 285.34L216.46 294.41Z" fill="#F7ECE7"/>
<path d="M226.62 282.8L226.88 284.5C226.9 284.62 226.86 284.75 226.77 284.84L224.16 287.61C223.92 287.86 223.5 287.72 223.46 287.38L223.19 285.34C223.17 285.21 223.22 285.08 223.32 284.99L225.93 282.56C226.18 282.34 226.58 282.47 226.62 282.8Z" fill="#FCF3F0"/>
<path d="M230.11 287.19C233.21 286.94 235.52 284.21 235.27 281.11L234.52 272.03L223.28 272.95L225.6 285.5C225.97 287.1 227 287.44 230.11 287.19Z" fill="#FCC9A7"/>
<path d="M234.9 275.21C234.9 275.21 232.48 282.09 227.57 281.24C223.06 280.46 223.28 272.95 223.28 272.95L234.9 275.21Z" fill="#F4BE9A"/>
<path d="M228.35 278.74L229.35 278.63C234.33 278.09 237.94 273.61 237.4 268.63L236.79 262.95C236.25 257.97 231.77 254.36 226.79 254.9L225.79 255.01C220.81 255.55 217.2 260.03 217.74 265.01L218.35 270.69C218.89 275.68 223.37 279.28 228.35 278.74Z" fill="#FCC9A7"/>
<path d="M228.35 278.74L229.35 278.63C234.33 278.09 237.94 273.61 237.4 268.63L236.79 262.95C236.25 257.97 231.77 254.36 226.79 254.9L225.79 255.01C220.81 255.55 217.2 260.03 217.74 265.01L218.35 270.69C218.89 275.68 223.37 279.28 228.35 278.74Z" fill="#FCC9A7"/>
<path d="M237.2 266.83C236.52 266.76 233.67 268.92 232.93 267.98C231.91 266.68 230.98 264.31 232.3 261.85C232.52 261.44 232.58 260.96 232.44 260.51C232.18 259.7 231.48 258.76 229.55 259.44C226.46 260.53 219.51 264.03 217.5 259.02C214.96 252.71 234.94 254.47 234.94 254.47L239.49 261.05L237.54 270.43L237.2 266.83Z" fill="#1C2226"/>
<path d="M234.42 267.78C234.61 269.56 236.21 270.85 237.99 270.65C239.77 270.46 241.06 268.86 240.86 267.08C240.67 265.3 239.07 264.01 237.29 264.21C235.51 264.41 234.23 266 234.42 267.78Z" fill="#FCC9A7"/>
<path d="M229.09 289.12L231.64 328.43L226.89 332.89L224.07 328.57L226.89 288.34L229.09 289.12Z" fill="#0C2C40"/>
<path d="M225.29 286.41L225.68 285.87L225.58 285.4H231.2L231.64 286.87L227.9 290.17L225.29 286.41Z" fill="#0C2C40"/>
<path d="M234.91 280.58L229.59 284.2C228.99 284.61 228.91 285.47 229.43 285.98L233.61 290.09C234.08 290.55 234.85 290.53 235.29 290.03L239.5 285.3C239.91 284.84 239.89 284.13 239.45 283.7L236.37 280.69C235.98 280.32 235.37 280.27 234.91 280.58Z" fill="#FCF3F0"/>
<path d="M212.37 282.45L204.41 277.65" stroke="#EADDD8" stroke-width="0.7599" stroke-miterlimit="10" stroke-linecap="round" stroke-linejoin="round"/>
<path d="M226.87 320.15L224.08 349.98C223.97 351.1 224.74 352.12 225.85 352.34L260.06 358.88C261.32 359.12 262.51 358.24 262.65 356.97L265.78 328.62C265.9 327.52 265.18 326.5 264.1 326.24L229.55 318.23C228.26 317.92 227 318.83 226.87 320.15Z" fill="#AFAFAF"/>
<path d="M229.3 320.68L226.51 350.51C226.41 351.63 227.17 352.65 228.28 352.87L262.49 359.41C263.75 359.65 264.94 358.77 265.08 357.5L268.21 329.15C268.33 328.05 267.61 327.03 266.53 326.77L231.98 318.75C230.68 318.45 229.42 319.36 229.3 320.68Z" fill="#D1D1D1"/>
<path d="M242.21 348.13C239.46 345.61 235.18 345.8 232.66 348.55C230.14 351.3 230.33 355.58 233.08 358.1C235.83 360.62 240.11 360.43 242.63 357.68C245.15 354.92 244.96 350.65 242.21 348.13Z" fill="#FCC9A7"/>
<path d="M247.28 344.19L242.06 351.77L236.98 347.49L241.86 340.28L247.28 344.19Z" fill="#FCC9A7"/>
<path d="M245.49 287.79C245.49 287.79 253.14 288.56 255.36 301.07L264.16 319.35C264.4 320.15 264.56 320.97 264.64 321.79L246.13 348.38L237.78 343.43L252.75 319.43L243.66 305.04L245.49 287.79Z" fill="#F7ECE7"/>
<path d="M240.5 339.84L248.93 344.36" stroke="#EADDD8" stroke-width="0.7599" stroke-miterlimit="10" stroke-linecap="round" stroke-linejoin="round"/>
<path d="M248.11 312.09L242.72 302.71" stroke="#EADDD8" stroke-width="0.7599" stroke-miterlimit="10" stroke-linecap="round" stroke-linejoin="round"/>
<path d="M219.56 261.25C215.74 259.52 216.54 255.06 217.41 253.65C217.41 253.65 217.58 256.16 219.29 255.58C219.29 255.58 219.06 251.84 224.07 250.87C224.07 250.87 222.22 254.23 228.81 253.59C236.9 252.8 237.37 257.92 236.92 264.28L234.44 262.5L232.52 258.07H225.97L219.56 261.25Z" fill="#1C2226"/>
<path d="M519.53 257.55C519.53 257.55 516.74 257.77 516.5 261.63C516.26 265.49 516.24 276.69 521.48 277.38C526.72 278.07 522.95 258.98 522.95 258.98L519.53 257.55Z" fill="#1C2226"/>
<path d="M537.73 261.01C537.73 261.01 539.85 266.92 535.62 268C531.38 269.08 532.17 260.51 532.17 260.51L537.73 261.01Z" fill="#1C2226"/>
<path d="M513.63 298.13L500.52 316.61L501.25 314.88L495.2 342L488.46 340.74L492.63 313.27C492.72 312.67 492.95 312.13 493.27 311.67L493.36 311.54L506.47 293.06L513.63 298.13Z" fill="#FCC9A7"/>
<path d="M490.18 350.32C486.73 349.29 484.78 345.65 485.81 342.21C486.84 338.76 490.48 336.81 493.92 337.84C497.37 338.87 499.32 342.51 498.29 345.95C497.26 349.39 493.63 351.35 490.18 350.32Z" fill="#FCC9A7"/>
<path d="M542.01 297.5L550.3 322.84L545.85 319.82L572.85 319.09L573.28 325.94L546.4 328.59C544.4 328.79 542.6 327.55 542 325.72L541.95 325.57L533.66 300.23L542.01 297.5Z" fill="#FCC9A7"/>
<path d="M540.54 427.11L544.6 438.3L550.54 432.96L546.75 423.99L540.54 427.11Z" fill="#FCC9A7"/>
<path d="M542.25 435.71C542.25 435.16 542.72 434.8 543.19 435C544.11 435.39 545.64 435.73 547.45 434.92C549.34 434.07 549.69 432.68 549.69 431.76C549.69 431.28 550.03 430.92 550.47 430.98L564.3 432.97C565.14 433.09 565.93 433.58 566.49 434.33C567.02 435.03 566.77 436.06 566.03 436.28L545.38 442.56C544.57 442.81 543.69 442.22 543.45 441.28L542.28 436.66C542.26 436.58 542.25 436.5 542.25 436.43V435.71Z" fill="#1F252A"/>
<path d="M486.54 419.51L482.04 428.32L487.28 432.8L492.94 422.23L486.54 419.51Z" fill="#FCC9A7"/>
<path d="M481.1 426.38C481.52 426.03 482.1 426.15 482.25 426.64C482.55 427.6 483.27 428.98 485.07 429.84C486.94 430.73 488.23 430.09 488.93 429.5C489.3 429.19 489.8 429.22 490.03 429.59L497.47 441.42C497.92 442.14 498.06 443.05 497.85 443.96C497.66 444.82 496.72 445.29 496.06 444.87L477.9 433.19C477.19 432.73 477.06 431.68 477.62 430.89L480.39 427.01C480.44 426.95 480.49 426.89 480.55 426.84L481.1 426.38Z" fill="#1F252A"/>
<path d="M535.95 336.87L518.19 386.14L493.05 427.8L481.84 422.26L504.19 380.73L516.45 339.19L535.95 336.87Z" fill="#092330"/>
<path d="M508.51 337.6C508.51 337.6 505.15 343.95 510.37 354.1L526.58 385.03L538.93 431.91L551.2 427.63L539.46 380.22L526.77 343.23L535.96 336.88L508.51 337.6Z" fill="#0C2C40"/>
<path d="M523.8 282.86L509.97 285.7C508.34 286.03 506.9 286.97 505.93 288.32L497.13 300.58L508.89 308.27L504.65 341.84C504.65 341.84 509.44 356.5 538.66 344.81C538.66 344.81 536.14 316.99 537.83 298.87L536.97 286.94L523.8 282.86Z" fill="#DF945B"/>
<path d="M536.98 286.93L539.28 287.77C541.18 288.46 542.66 289.99 543.29 291.92L548.08 306.53L534 309.13L536.98 286.93Z" fill="#DF945B"/>
<path d="M581.83 320.56C581.83 324.16 578.91 327.08 575.31 327.08C571.71 327.08 568.8 324.16 568.8 320.56C568.8 316.96 571.72 314.05 575.31 314.05C578.91 314.05 581.83 316.96 581.83 320.56Z" fill="#FCC9A7"/>
<path d="M527.71 287.09L526.14 287.96C523.09 287.71 520.22 287.06 520.47 284.01L521.2 275.07L532.25 275.98L531.52 284.92C531.27 287.97 530.76 287.34 527.71 287.09Z" fill="#FCC9A7"/>
<path d="M521.05 276.15C521.05 276.15 522.57 282.77 528.13 282.54C532.99 282.33 532.53 275.07 532.53 275.07L521.05 276.15Z" fill="#F4BE9A"/>
<path d="M527.18 280.19L526.24 280.09C521.54 279.58 518.14 275.36 518.64 270.65L519.22 265.29C519.73 260.59 523.95 257.19 528.66 257.69L529.6 257.79C534.3 258.3 537.7 262.52 537.2 267.23L536.62 272.59C536.11 277.29 531.89 280.69 527.18 280.19Z" fill="#FCC9A7"/>
<path d="M509.7 305.93L513.26 301.73" stroke="#CE804A" stroke-width="0.7693" stroke-miterlimit="10" stroke-linecap="round" stroke-linejoin="round"/>
<path d="M537.3 308.52L537.84 299.85" stroke="#CE804A" stroke-width="0.7693" stroke-miterlimit="10" stroke-linecap="round" stroke-linejoin="round"/>
<path d="M527.71 287.09L520.69 282.85C517.69 281.6 515.78 284.5 515.78 284.5L524.14 292.7L527.71 287.09Z" fill="#EDA472"/>
<path d="M527.71 287.09L531.11 292.35L534.51 286.16C534.51 286.16 533.17 284.05 531.34 284.54L527.71 287.09Z" fill="#EDA472"/>
<path d="M546.03 320.83H588.52C589.23 320.83 589.8 320.26 589.8 319.55C589.8 318.84 589.23 318.27 588.52 318.27H546.03C545.32 318.27 544.75 318.84 544.75 319.55C544.75 320.25 545.32 320.83 546.03 320.83Z" fill="#D1D1D1"/>
<path d="M589.8 319.22L594.88 294.54C595.01 293.93 594.54 293.35 593.91 293.35H568.06C567.59 293.35 567.18 293.68 567.09 294.15L562.08 319.23H589.8V319.22Z" fill="#D1D1D1"/>
<path d="M592.01 295.23L587.27 317.62H563.83L568.57 295.23H592.01Z" fill="#EFEFEF"/>
<path d="M519.78 269.37H522.65L523.21 266.22C523.21 266.22 526.21 264.61 525.63 261.5C525.63 261.5 538.26 266.03 540.23 260.99C542.83 254.34 533.4 252.69 525.63 252.88C517.86 253.06 518.42 262.98 518.42 262.98L519.78 269.37Z" fill="#1C2226"/>
<path d="M521.46 268.74C521.28 270.42 519.77 271.63 518.09 271.45C516.41 271.27 515.2 269.76 515.38 268.08C515.56 266.4 517.07 265.19 518.75 265.37C520.43 265.55 521.64 267.06 521.46 268.74Z" fill="#FCC9A7"/>
<path d="M691.21 308.1L696.02 302.89L701.04 306.08L695.06 312.61L691.21 308.1Z" fill="#FFC9A6"/>
<path d="M704.72 297.22C706.37 300.07 705.46 303.74 702.68 305.43C699.9 307.12 696.3 306.17 694.65 303.32C693 300.47 693.91 296.8 696.69 295.11C699.47 293.43 703.06 294.38 704.72 297.22Z" fill="#FFC9A6"/>
<path d="M707.63 288.59C708.12 289.08 708.13 289.88 707.66 290.38L696.99 301.63C696.52 302.13 695.73 302.14 695.24 301.65C694.75 301.17 694.74 300.36 695.21 299.86L705.88 288.61C706.35 288.11 707.14 288.1 707.63 288.59Z" fill="black"/>
<path d="M659.29 300.51L681.05 318.98L692.87 305.06L697.94 311.38L683.98 331.37C682.8 332.78 680.7 332.91 679.36 331.65L659.06 319.72L659.29 300.51Z" fill="#4F4D4B"/>
<path d="M684.94 386.67C684.94 386.67 649.7 412.28 635.53 428.04L631.23 424.04L643.16 409.68C643.16 409.68 648.58 397.02 660.1 392.85L676.08 373.5L684.94 386.67Z" fill="#F2C09E"/>
<path d="M631.24 421.23C631.71 420.97 632.24 421.2 632.29 421.7C632.39 422.67 632.83 424.14 634.39 425.3C636.01 426.51 637.37 426.14 638.15 425.71C638.56 425.48 639.04 425.6 639.19 426L644.07 438.76C644.37 439.53 644.32 440.44 643.95 441.27C643.6 442.05 642.61 442.33 642.06 441.8L626.87 427.16C626.27 426.58 626.35 425.55 627.04 424.9L630.43 421.7C630.49 421.65 630.55 421.6 630.62 421.56L631.24 421.23Z" fill="#1F252A"/>
<path d="M686.28 374.37C686.28 374.37 687.99 417.9 693.22 438.43L687.5 439.78L682.2 421.88C682.2 421.88 674.69 410.34 677.62 398.44L670.41 374.4L686.28 374.37Z" fill="#FCC9A7"/>
<path d="M685.18 437.41C685.22 436.88 685.71 436.56 686.15 436.8C687.01 437.26 688.48 437.71 690.31 437.05C692.22 436.37 692.67 435.04 692.74 434.15C692.78 433.68 693.14 433.35 693.56 433.45L706.88 436.48C707.69 436.66 708.42 437.2 708.9 437.97C709.36 438.69 709.04 439.67 708.29 439.84L687.68 444.33C686.87 444.51 686.06 443.87 685.9 442.93L685.13 438.34C685.12 438.26 685.11 438.19 685.12 438.11L685.18 437.41Z" fill="#1F252A"/>
<path d="M654.27 367.8L653.38 395.52L693.52 397.52C693.52 397.52 689.09 381.57 685.54 365.93L654.27 367.8Z" fill="#F7ECE7"/>
<path d="M661.4 295.21C660.23 295.07 659.05 294.44 658.18 293.86C657.32 293.29 656.87 292.27 656.99 291.24L659.35 272.48L667.56 273.47L665.24 292C664.98 294.12 663.28 295.43 661.4 295.21Z" fill="#FCC9A7"/>
<path d="M665.89 286.79L663.05 281.6C663.05 281.6 660.34 286.84 665.59 289.16L665.89 286.79Z" fill="#F2C09E"/>
<path d="M674.83 274.34C674.16 279.93 669.08 283.92 663.49 283.24C657.9 282.57 653.91 277.49 654.59 271.9C655.26 266.31 660.34 262.32 665.93 263C671.52 263.67 675.5 268.75 674.83 274.34Z" fill="#FCC9A7"/>
<path d="M666.61 286.93C663.96 286.61 662.06 284.2 662.38 281.54L663.22 274.61L674.83 274.33L674.01 281.12C673.57 284.77 670.26 287.37 666.61 286.93Z" fill="#FCC9A7"/>
<path d="M674.26 276.57L676.08 280.09C676.33 280.66 675.84 281.26 675.2 281.18L672.58 281.36L674.26 276.57Z" fill="#FCC9A7"/>
<path d="M664.48 277.63L666.71 277.45L667.57 273.47C667.57 273.47 676.71 275.09 678.08 270.76C678.08 270.76 672.8 256.2 660.02 261.88C650.54 266.09 653.26 276.51 656.38 280.38C657.42 281.67 657.91 283.34 657.77 284.99C657.75 285.19 657.73 285.4 657.7 285.62L661.43 277.14L664.48 277.63Z" fill="#FF7C60"/>
<path d="M661.52 273.39C662.94 272.78 664.59 273.44 665.2 274.87C665.81 276.29 665.15 277.94 663.72 278.55C662.3 279.16 660.65 278.5 660.04 277.07C659.43 275.64 660.09 274 661.52 273.39Z" fill="#FCC9A7"/>
<path d="M658.44 264.95C658.44 264.95 656.16 252.8 645.85 256.12C634.49 259.78 639.51 272.89 639.06 275.76C638.54 279.12 636.78 282.62 631.91 283.28C631.91 283.28 645.52 286.34 646.29 276.81C646.94 268.79 650.74 265.53 655.07 268.62L658.44 264.95Z" fill="#FF7C60"/>
<path d="M657 291.24C657 291.24 654.65 290.33 653.46 303.09C652.27 315.85 651.48 375.23 651.48 375.23L688.53 368.92C688.53 368.92 681.81 315.82 665.22 291.99L657 291.24Z" fill="#383635"/>
<path d="M657.47 376.08C657.69 379.41 660.5 381.93 663.75 381.71C667 381.49 669.47 378.61 669.25 375.28C669.03 371.95 666.22 369.43 662.97 369.65C659.72 369.87 657.25 372.75 657.47 376.08Z" fill="#FCC9A7"/>
<path d="M660.698 372.53H666.768V361.12H660.698V372.53Z" fill="#FCC9A7"/>
<path d="M667.71 310.99V366.74H659.36L656.41 308.28C656.27 305.64 657.38 303.04 659.47 301.5C661.85 299.74 665.06 299.59 667.31 307.99C667.58 308.96 667.71 309.97 667.71 310.99Z" fill="#4F4D4B"/>
<path d="M667.71 366.74V363.2H659.18L659.37 366.74H667.71Z" fill="white"/>
<path d="M369.38 424.56L371.56 437.32L377.88 437.93L375.69 423.68L369.38 424.56Z" fill="#FCC9A7"/>
<path d="M370.69 436.44C370.82 435.99 371.29 435.82 371.63 436.09C372.28 436.63 373.45 437.28 375.12 437.05C376.86 436.82 377.48 435.76 377.71 435.02C377.83 434.63 378.2 434.42 378.53 434.57L390.36 439.53C391.02 439.83 391.54 440.42 391.81 441.16C392.07 441.86 391.62 442.63 390.96 442.64L371.58 442.76C370.86 442.76 370.28 442.08 370.32 441.25L370.49 437.21C370.49 437.14 370.5 437.08 370.52 437.01L370.69 436.44Z" fill="#1F252A"/>
<path d="M343.83 365.85H341.25V441.08H343.83V365.85Z" fill="#2A272D"/>
<path d="M338.24 350.38L356.72 384.32L368.41 431.47H379.02L371.45 379.07L338.24 350.38Z" fill="#232322"/>
<path d="M353.49 364.74H330.39C327.08 364.74 324.39 362.06 324.39 358.74C324.39 355.43 327.07 352.74 330.39 352.74H353.49C356.8 352.74 359.49 355.43 359.49 358.74C359.49 362.06 356.8 364.74 353.49 364.74Z" fill="#FFEEE3"/>
<path d="M353.63 364.74H331.43V366.96H353.63V364.74Z" fill="#2A272D"/>
<path d="M353.63 422.82H331.43V425.04H353.63V422.82Z" fill="#2A272D"/>
<path d="M341.34 288.91C336.89 288.37 332.67 291.06 330.97 295.2C329.53 298.69 328.33 303.75 329.61 309.62C333.51 327.59 331.18 340.02 331.18 340.02H352.31L352.23 315.55C352.23 315.55 353.69 312.7 354.48 308.97C355.59 303.75 355.17 303.07 352.12 298.45L345.63 290.53C345.64 290.53 344.19 289.25 341.34 288.91Z" fill="#FFD686"/>
<path d="M379.77 306.25C381.18 303.43 384.6 302.29 387.42 303.7C390.24 305.11 391.38 308.53 389.97 311.35C388.56 314.17 385.14 315.31 382.32 313.9C379.5 312.5 378.36 309.07 379.77 306.25Z" fill="#FCC9A7"/>
<path d="M381.02 304.6L370.28 314.8L374.36 319.34L382.73 312.17L381.02 304.6Z" fill="#FCC9A7"/>
<path d="M334.1 304.74L353.53 334.27C354.28 335.4 355.82 335.67 356.91 334.85L380.36 316.43L375.61 308.28L357.47 322.14L344.79 298.69C343.1 295.17 338.61 294.1 335.51 296.46C332.93 298.42 332.32 302.04 334.1 304.74Z" fill="#FFD686"/>
<path d="M342.56 293.38C341.33 293.37 340.02 292.86 339.05 292.36C338.09 291.87 337.49 290.86 337.5 289.78L337.7 269.94L346.37 269.98L346.17 289.57C346.16 291.82 344.54 293.39 342.56 293.38Z" fill="#FCC9A7"/>
<path d="M346.23 284.07L342.65 279C342.65 279 340.46 284.79 346.21 286.57L346.23 284.07Z" fill="#F2C09E"/>
<path d="M354.04 270.02C354.01 275.93 349.2 280.69 343.29 280.66C337.38 280.63 332.62 275.82 332.65 269.91C332.68 264 337.49 259.24 343.4 259.27C349.3 259.3 354.06 264.11 354.04 270.02Z" fill="#FCC9A7"/>
<path d="M346.99 284.13C344.19 284.12 341.92 281.83 341.94 279.03L341.97 271.71L354.03 270.02L354 277.19C353.98 281.04 350.85 284.15 346.99 284.13Z" fill="#FCC9A7"/>
<path d="M353.71 272.41L356.03 275.86C356.36 276.42 355.93 277.11 355.24 277.11L352.53 277.61L353.71 272.41Z" fill="#FCC9A7"/>
<path d="M341.98 274.64L346.53 274.48C346.53 274.48 346.92 270.53 347.81 269.58C348.7 268.63 349.15 264.41 349.15 264.41C349.15 264.41 347 267.04 346.37 269.76L355.9 269.52C355.9 269.52 357.32 257.96 342.89 257.4C328.45 256.84 328.85 270.5 331.69 273.21C333.95 275.37 337.61 280.67 337.61 280.67C337.61 280.67 337.44 274.8 341.98 274.64Z" fill="#4C1827"/>
<path d="M345.28 273.24C345.34 274.93 344.02 276.34 342.34 276.4C340.65 276.46 339.24 275.14 339.17 273.46C339.11 271.77 340.43 270.36 342.11 270.29C343.8 270.23 345.21 271.55 345.28 273.24Z" fill="#FCC9A7"/>
<path d="M336.46 255.92C336.92 259.71 334.23 263.15 330.45 263.62C326.66 264.08 323.22 261.39 322.75 257.6C322.29 253.81 324.98 250.37 328.77 249.91C332.56 249.44 336 252.13 336.46 255.92Z" fill="#4C1827"/>
<path d="M337.84 291.15C337.84 291.15 338.67 293.74 350.25 296.15L344.87 288.83L337.84 291.15Z" fill="#FCC9A7"/>
<path d="M342.54 437.28L327.02 442.59H358.04L342.54 437.28Z" fill="#2A272D"/>
<path d="M343.71 405.47L335.22 415.68L341.32 418L349.84 407.19L343.71 405.47Z" fill="#FCC9A7"/>
<path d="M335.51 414.29C335.81 413.94 336.31 413.96 336.51 414.35C336.89 415.11 337.69 416.17 339.32 416.63C341.01 417.11 342.86 415.63 343.36 415.04C343.62 414.73 344.05 414.68 344.29 414.96L354.68 422.25C355.16 422.79 355.4 423.54 355.36 424.33C355.32 425.07 354.6 425.6 353.99 425.34L333.43 420.14C332.77 419.85 332.51 418.99 332.88 418.25L335.02 414.91C335.05 414.85 335.09 414.79 335.13 414.74L335.51 414.29Z" fill="#1F252A"/>
<path d="M330.57 340.02C330.57 340.02 324.21 354.5 346.81 362.21L362.43 376.72L338.25 409.1L349.06 413.01L378.42 381.77C380.59 379.24 380.68 375.36 378.63 372.72L352.32 340.01H330.57V340.02Z" fill="#383635"/>
<path d="M453.55 327.23H376.34V331.53H453.55V327.23Z" fill="#FFEEE3"/>
<path d="M395.33 442.61V331.53" stroke="#2A272D" stroke-width="2.2811" stroke-miterlimit="10"/>
<path d="M433.94 442.61V331.53" stroke="#2A272D" stroke-width="2.2811" stroke-miterlimit="10"/>
<path d="M424.82 324.89H392.7V326.97H424.82V324.89Z" fill="#2A272D"/>
<path d="M424.82 326.98L435.22 296.62L433.04 296.1L422.85 325.26L424.82 326.98Z" fill="#2A272D"/>
<path d="M352.04 332.01L336.53 308.43" stroke="#EFC375" stroke-width="0.7847" stroke-miterlimit="10" stroke-linecap="round" stroke-linejoin="round"/>
<path d="M352.98 313.51L347.06 304.15" stroke="#EFC375" stroke-width="0.7847" stroke-miterlimit="10" stroke-linecap="round" stroke-linejoin="round"/>
<path d="M77.14 339.94L78.13 338.8C78.13 338.8 78.67 334.3 76.66 329.12" stroke="#EFC375" stroke-width="0.7847" stroke-miterlimit="10" stroke-linecap="round" stroke-linejoin="round"/>
<path d="M250.06 90.28L243.56 87.07L239.94 91.96L248.05 95.99L250.06 90.28Z" fill="#FFC9A6"/>
<path d="M233.19 84.87C232.66 88.19 234.88 91.36 238.15 91.95C241.42 92.54 244.5 90.32 245.03 86.99C245.56 83.67 243.34 80.5 240.07 79.91C236.8 79.32 233.72 81.54 233.19 84.87Z" fill="#FFC9A6"/>
<path d="M227.24 77.7C226.95 78.34 227.24 79.11 227.87 79.42L242.18 86.23C242.81 86.53 243.57 86.25 243.86 85.61C244.15 84.97 243.86 84.19 243.23 83.89L228.92 77.08C228.28 76.78 227.53 77.06 227.24 77.7Z" fill="black"/>
<path d="M277.71 71.32L263.74 96.92L247.35 87.99L244.84 95.88L265.49 109.81C267.14 110.72 269.18 110.08 270 108.38L284.97 89.55L277.71 71.32Z" fill="#EAD1B9"/>
<path d="M287.91 61.09L288.56 60.63C290.72 59.11 294 60.24 292.51 58.03L279.92 39.23L272.15 44.7L282.48 60.06C283.71 61.88 286.14 62.34 287.91 61.09Z" fill="#FCC9A7"/>
<path d="M265.62 48.49C268.24 53.63 274.44 55.61 279.45 52.93C284.47 50.25 286.41 43.91 283.79 38.78C280.63 32.59 275.51 31.37 269.96 34.34C264.94 37.02 263 43.36 265.62 48.49Z" fill="#FCC9A7"/>
<path d="M278.27 58.5C280.65 57.23 281.58 54.22 280.33 51.78L275.79 42.88L265.55 48.35L269.25 55.61C270.96 58.95 275 60.25 278.27 58.5Z" fill="#FCC9A7"/>
<path d="M266.95 50.43L266.49 54.48C266.46 55.12 267.13 55.52 267.71 55.21L270.24 54.43L266.95 50.43Z" fill="#FCC9A7"/>
<path d="M280.36 45.74L285.44 47.47C285.44 47.47 289.32 30.9 276.88 28.86C276.88 28.86 266.48 28.24 262.61 37.14C261.51 39.68 261.61 43.62 264.46 44.21C264.46 44.21 264.48 44.43 264.46 44.21C264.27 41.98 265.08 40.04 265.08 40.04C265.08 40.04 267.5 45.95 272.41 45.38L273.83 47.57C274.37 48.4 276.01 48.08 276.87 47.61L277.84 47.09L276.54 44.53L280.36 45.74Z" fill="#0B1226"/>
<path d="M275.61 42.67C274.57 43.85 274.67 45.68 275.82 46.74C276.98 47.8 278.76 47.71 279.8 46.52C280.84 45.34 280.74 43.51 279.59 42.45C278.43 41.39 276.65 41.48 275.61 42.67Z" fill="#FCC9A7"/>
<path d="M305.4 207.15L307.18 216.31L300.75 217.67L298.56 208.32L305.4 207.15Z" fill="#FCC9A7"/>
<path d="M308.35 215.76C308.17 215.28 307.59 215.11 307.2 215.43C306.43 216.05 305.05 216.81 303 216.65C300.88 216.48 300.08 215.37 299.78 214.57C299.62 214.15 299.17 213.94 298.76 214.12L285.88 220.04C285.1 220.4 284.49 221.06 284.18 221.88C283.89 222.65 284.47 223.47 285.27 223.44L307.52 222.68C308.4 222.65 309.07 221.88 308.99 220.98L308.62 216.6C308.61 216.53 308.6 216.46 308.57 216.39L308.35 215.76Z" fill="#0C0C0C"/>
<path d="M283.12 206.75L282.47 216.06L275.93 215.64L276.21 206.03L283.12 206.75Z" fill="#FCC9A7"/>
<path d="M274.01 108.89L274.2 209.05H285.61L289.31 121.24L274.01 108.89Z" fill="#0C0C0C"/>
<path d="M278.38 63.85C278.38 63.85 280.14 59.86 281.95 58.95C283.76 58.04 291.99 56.85 291.99 56.85C291.99 56.85 301.37 63.21 301.23 74.6L300.41 108.89H274C274.01 108.89 272.04 77.93 278.38 63.85Z" fill="#F7E0C6"/>
<path d="M274.01 108.89L278.68 123.35L284.42 163.01L296.41 210.06L307.56 208.75L298.35 162.5L298.61 127.84C298.61 127.84 299.17 124.66 297.57 108.9H274.01V108.89Z" fill="#232322"/>
<path d="M289.78 144.72C290.02 148.36 293.1 151.12 296.66 150.88C300.22 150.64 302.92 147.49 302.68 143.84C302.44 140.19 299.36 137.44 295.8 137.68C292.24 137.92 289.54 141.07 289.78 144.72Z" fill="#FCC9A7"/>
<path d="M293.307 140.828H299.957V128.338H293.307V140.828Z" fill="#FCC9A7"/>
<path d="M300.99 73.47V131.3H291.85L288.62 70.5C288.47 67.61 289.68 64.77 291.97 63.08C294.58 61.16 298.08 60.99 300.55 70.18C300.85 71.25 300.99 72.36 300.99 73.47Z" fill="#F7E0C6"/>
<path d="M300.99 131.3V127.42H291.65L291.86 131.3H300.99Z" fill="#FFEEE3"/>
<path d="M284.1 214.28C283.94 213.79 283.37 213.59 282.96 213.89C282.16 214.47 280.74 215.16 278.71 214.9C276.6 214.63 275.85 213.48 275.59 212.66C275.45 212.23 275.01 212 274.6 212.16L261.46 217.43C260.66 217.75 260.02 218.38 259.68 219.19C259.36 219.95 259.89 220.79 260.7 220.81L282.96 221.15C283.84 221.16 284.54 220.42 284.51 219.53L284.35 215.13C284.35 215.06 284.33 214.99 284.31 214.92L284.1 214.28Z" fill="#0C0C0C"/>
<path d="M289.31 78.51L290.67 108.89L289.31 78.51Z" stroke="#E8CCB1" stroke-width="0.7847" stroke-miterlimit="10" stroke-linecap="round" stroke-linejoin="round"/>
<path d="M268.36 41.15C268.36 41.15 261 52.02 258.6 42.7C256.2 33.38 271.66 36.15 271.66 36.15L268.36 41.15Z" fill="#0B1226"/>
<path d="M291.99 56.85C291.99 56.85 280.81 68.08 279.45 61.79C279.45 61.79 280.66 58.76 284.96 56.5L291.99 56.85Z" fill="#FCC9A7"/>
<path d="M247.35 87.98L244.84 95.87L247.9 97.93L250.65 89.78L247.35 87.98Z" fill="#FFEEE3"/>
<path d="M565.84 159.55H535.11V208.31H565.84V159.55Z" fill="#B2B2B2"/>
<path d="M535.23 159.55H504.5V208.31H535.23V159.55Z" fill="#D1D1D1"/>
<path d="M519.13 100.42L517.82 126.63L511.66 145.85H522.75L528.51 129.29L530.31 110.47L519.13 100.42Z" fill="#F7EBE7"/>
<path d="M518.82 192.03L521.05 202.42L513.56 203.31L511.43 193.08L518.82 192.03Z" fill="#FCC9A7"/>
<path d="M521.5 201.48C521.31 200.92 520.71 200.72 520.3 201.08C519.5 201.79 518.06 202.66 515.93 202.45C513.72 202.23 512.89 200.93 512.57 199.99C512.4 199.5 511.93 199.25 511.51 199.46L498.1 206.2C497.29 206.61 496.65 207.37 496.33 208.32C496.03 209.21 496.63 210.17 497.47 210.15L520.64 209.51C521.55 209.49 522.25 208.59 522.17 207.55L521.79 202.45C521.78 202.37 521.77 202.28 521.74 202.2L521.5 201.48Z" fill="#1F252A"/>
<path d="M518.69 141.79H501.3C501.3 141.79 490.71 141.2 490.08 149.89C489.45 158.58 505.61 183.44 508.14 196.72L522.68 195.52L512.21 159.41L538.25 159.56C540.18 159.57 542.1 159.29 543.92 158.66C548.99 156.9 556.73 154.38 552.51 140.42L518.69 141.79Z" fill="#092330"/>
<path d="M532.11 192.07L535.65 204.49L528.16 205.38L524.72 193.12L532.11 192.07Z" fill="#FCC9A7"/>
<path d="M536.1 203.55C535.91 202.99 535.31 202.79 534.9 203.15C534.1 203.86 532.66 204.73 530.53 204.52C528.32 204.3 527.49 203 527.17 202.06C527 201.57 526.53 201.32 526.11 201.53L512.7 208.27C511.89 208.68 511.25 209.44 510.93 210.39C510.63 211.28 511.23 212.24 512.07 212.22L535.64 211.58C536.55 211.56 537.25 210.66 537.17 209.62L536.38 204.52C536.37 204.44 536.36 204.35 536.33 204.27L536.1 203.55Z" fill="#1F252A"/>
<path d="M539.47 90.12C539.86 90.5 557.31 94.95 557.31 94.95L553.58 104.86L534.5 103.42L539.47 90.12Z" fill="#F7EBE7"/>
<path d="M532.27 92.51C532.27 92.51 520.9 96.66 519.13 100.42C519.74 105.73 521.61 110.84 524.69 115.21C528.47 120.57 533.14 129.78 532.28 141.79H565.15C565.15 141.79 563.38 108 553.65 95.03L532.27 92.51Z" fill="#F7EBE7"/>
<path d="M536 97.87C539.23 97.21 541.31 94.06 540.65 90.83L538.72 81.38L527.03 83.77L528.96 93.22C529.62 96.45 532.77 98.53 536 97.87Z" fill="#FCC9A7"/>
<path d="M539.52 84.68C539.52 84.68 538.29 92.34 532.33 92.8C527.11 93.2 527.61 85.65 527.61 85.65L539.52 84.68Z" fill="#F4BE9A"/>
<path d="M532.8 88.6L533.83 88.36C539 87.16 542.22 82 541.02 76.84L539.66 70.95C538.46 65.78 533.3 62.56 528.14 63.76L527.11 64C521.94 65.2 518.72 70.36 519.92 75.52L521.28 81.41C522.48 86.58 527.64 89.8 532.8 88.6Z" fill="#FCC9A7"/>
<path d="M537.78 79.29C537.54 79.7 537.31 80.32 537.23 81.26C537.14 82.45 536.54 83.58 535.54 84.24C532.67 86.14 530.48 81.33 526.24 82.18C526.24 82.18 524.58 82.43 524.25 84.28C523.92 86.12 521.61 82.9 521.1 80.7C520.59 78.5 520.33 91.59 530.77 90.48C530.77 90.48 536.04 90.31 539.59 84.94C539.98 84.35 540.21 83.66 540.23 82.95C540.26 81.9 540.11 80.31 539.11 79.17C538.76 78.75 538.06 78.81 537.78 79.29Z" fill="#1C2226"/>
<path d="M537.79 76.32C537.79 76.32 533.28 74.83 534.04 68.24C534.04 68.24 522.84 78.84 514.54 71.06C514.54 71.06 518.25 70.07 519.78 67.53C522.57 62.9 530.59 56.52 537.01 63.9C537.01 63.9 544.82 62.69 542.58 74.72L537.79 76.32Z" fill="#1C2226"/>
<path d="M537.79 76.32C538.22 78.16 540.06 79.31 541.9 78.89C543.75 78.46 544.89 76.62 544.47 74.78C544.04 72.94 542.2 71.79 540.36 72.21C538.51 72.64 537.36 74.48 537.79 76.32Z" fill="#FCC9A7"/>
<path d="M532.09 97.5L536.92 97.59L533.54 104.59L529.89 97.88L532.09 97.5Z" fill="#0C2C40"/>
<path d="M541.06 90.43L534.84 97.69L538.89 102.34L546.34 92.1C546.34 92.1 544.43 89.03 541.06 90.43Z" fill="#FFF7F3"/>
<path d="M532.09 97.5L528.51 101.54L525.99 95.24C525.99 95.24 526.65 92.41 528.71 92.95L532.09 97.5Z" fill="#FFF7F3"/>
<path d="M533.41 102.33C533.41 102.33 528.74 114.51 529.9 131.79L534.5 135.99L539.87 130.82L534.08 101.54L533.41 102.33Z" fill="#0C2C40"/>
<path d="M542.14 131.25L532.14 134.54L531.48 140.41L544.74 136.45L542.14 131.25Z" fill="#FCC9A7"/>
<path d="M533.63 138.42C533.63 141.85 530.85 144.64 527.41 144.64C523.98 144.64 521.19 141.86 521.19 138.42C521.19 134.99 523.97 132.2 527.41 132.2C530.84 132.2 533.63 134.98 533.63 138.42Z" fill="#FCC9A7"/>
<path d="M532.27 141.79H514.89C514.89 141.79 504.3 141.2 503.67 149.89C503.04 158.58 520.39 185.04 522.92 198.31L537.46 197.11L525.8 159.4L551.84 159.55C553.77 159.56 555.69 159.28 557.51 158.65C562.58 156.89 570.32 154.37 566.1 140.41L532.27 141.79Z" fill="#0C2C40"/>
<path d="M479.84 111.06H509.89C510.88 111.06 511.73 111.75 511.94 112.72L517.6 139.26C517.88 140.56 516.88 141.79 515.55 141.79H485C484 141.79 483.14 141.08 482.95 140.1L477.79 113.56C477.53 112.26 478.52 111.06 479.84 111.06Z" fill="#B2B2B2"/>
<path d="M478.11 111.06H508.15C509.14 111.06 509.99 111.75 510.2 112.72L515.86 139.26C516.14 140.56 515.15 141.79 513.81 141.79H483.27C482.27 141.79 481.41 141.08 481.22 140.1L476.06 113.56C475.8 112.26 476.79 111.06 478.11 111.06Z" fill="#D1D1D1"/>
<path d="M516.78 139.52H537.31C537.94 139.52 538.44 140.03 538.44 140.65C538.44 141.28 537.93 141.78 537.31 141.78H516.38L516.78 139.52Z" fill="#B2B2B2"/>
<path d="M496.71 125.73C496.71 127.54 495.25 129 493.44 129C491.63 129 490.17 127.53 490.17 125.73C490.17 123.92 491.64 122.46 493.44 122.46C495.25 122.46 496.71 123.92 496.71 125.73Z" fill="white"/>
<path d="M550.14 104.39L561.12 122.12L534.84 131.5L538.44 139.28C538.44 139.28 560.91 136.76 571.77 128.39C572.77 127.62 573.27 126.37 573.1 125.12C572.59 121.12 570.41 111.41 561.12 97.61C559.23 94.8 555.47 93.95 552.54 95.65C549.49 97.41 548.42 101.31 550.14 104.39Z" fill="#F7EBE7"/>
<path d="M541.83 129L561.12 122.12L551.47 106.53" stroke="#EADDD8" stroke-width="0.7599" stroke-miterlimit="10" stroke-linecap="round" stroke-linejoin="round"/>
<path d="M528.77 123.13L524.02 110.59" stroke="#EADDD8" stroke-width="0.7599" stroke-miterlimit="10" stroke-linecap="round" stroke-linejoin="round"/>
<path d="M542.14 138.75C542.14 138.75 556.9 136.9 564.34 132.64" stroke="#EADDD8" stroke-width="0.7599" stroke-miterlimit="10" stroke-linecap="round" stroke-linejoin="round"/>
<path d="M643.67 114.48C646.26 112.92 649.63 113.75 651.19 116.35C652.75 118.94 651.92 122.31 649.32 123.87C646.73 125.43 643.36 124.6 641.8 122C640.24 119.42 641.08 116.05 643.67 114.48Z" fill="#FCC9A7"/>
<path d="M649.88 114.87C649.7 114.73 640.08 103.43 640.08 103.43L636.15 108.19L644.83 119.18L649.88 114.87Z" fill="#FCC9A7"/>
<path d="M641.77 202.97L639.32 214.16L631.58 213L634.08 201.96L641.77 202.97Z" fill="#FCC9A7"/>
<path d="M676.47 201.97L676.56 213.43L668.77 214.01L668.75 202.69L676.47 201.97Z" fill="#FCC9A7"/>
<path d="M640.3 212.34C640.14 211.87 639.57 211.67 639.16 211.97C638.36 212.55 636.95 213.23 634.91 212.99C632.79 212.74 632.03 211.62 631.77 210.82C631.63 210.4 631.18 210.18 630.77 210.34L617.64 215.6C616.84 215.92 616.2 216.54 615.87 217.33C615.55 218.07 616.09 218.9 616.9 218.9L639.21 219.06C640.09 219.07 640.79 218.34 640.75 217.46L640.56 213.15C640.56 213.08 640.54 213.01 640.52 212.94L640.3 212.34Z" fill="#0C0C0C"/>
<path d="M667.98 212.34C668.14 211.87 668.72 211.67 669.12 211.97C669.92 212.55 671.33 213.23 673.37 212.99C675.49 212.74 676.24 211.62 676.51 210.82C676.65 210.4 677.1 210.18 677.51 210.34L690.64 215.6C691.44 215.92 692.08 216.54 692.41 217.33C692.73 218.07 692.19 218.9 691.38 218.9L669.07 219.06C668.19 219.07 667.49 218.34 667.53 217.46L667.72 213.15C667.72 213.08 667.74 213.01 667.76 212.94L667.98 212.34Z" fill="#0C0C0C"/>
<path d="M667.88 58.3L660.95 58.9L649.93 65.11V109.27H679.34V65.11L667.88 58.3Z" fill="#54585A"/>
<path d="M665.98 62.75H663.99C661.93 62.75 660.26 61.08 660.26 59.02V51.54H669.7V59.02C669.71 61.08 668.04 62.75 665.98 62.75Z" fill="#FCC9A7"/>
<path d="M660.26 55.35C660.26 55.35 661.73 58.3 665.07 58.3C668.41 58.3 669.7 55.29 669.7 55.29L660.26 55.35Z" fill="#F4BE9A"/>
<path d="M665.09 56.57H664.78C659.97 56.57 656.01 52.77 655.82 47.96L655.65 43.17C655.45 38.08 659.52 33.85 664.61 33.85H665.26C669.11 33.85 674.42 38.08 674.22 43.17L674.05 47.96C673.86 52.77 669.9 56.57 665.09 56.57Z" fill="#FCC9A7"/>
<path d="M658.57 46.8C658.68 48.42 657.46 49.82 655.84 49.93C654.22 50.04 652.82 48.82 652.71 47.2C652.6 45.58 653.82 44.18 655.44 44.07C657.06 43.97 658.46 45.19 658.57 46.8Z" fill="#FCC9A7"/>
<path d="M677.15 46.8C677.26 48.42 676.04 49.82 674.42 49.93C672.8 50.04 671.4 48.82 671.29 47.2C671.18 45.58 672.4 44.18 674.02 44.07C675.64 43.97 677.04 45.19 677.15 46.8Z" fill="#FCC9A7"/>
<path d="M649.93 109.06L631.64 206.29L642.15 206.19L668.89 109.25L649.93 109.06Z" fill="#0C0C0C"/>
<path d="M679.34 109.27L678.19 206.39H667.08L662.65 109.88L679.34 109.27Z" fill="#0C0C0C"/>
<path d="M649.93 65.11C649.93 65.11 625.37 79.93 619.4 90.21C618.23 92.22 619.75 94.82 621.81 95.89C624.09 97.08 626.9 96.27 628.21 94.06L650.93 80.88C650.94 80.88 649.93 69.56 649.93 65.11Z" fill="#54585A"/>
<path d="M655.14 37.73L655.83 45.09H656.94L657.08 41.23C657.08 41.23 657.66 39.75 660.25 36.57C660.25 36.57 661.94 40.89 672.41 40.05L673.02 44.93L674.1 44.81L674.67 39.57C675.05 37.8 675.18 36.15 674.86 34.37C674.21 30.77 671.28 28.78 662.82 31.32C662.12 31.53 663.55 31.39 662.82 31.32C660.4 31.05 654.02 31.02 655.14 37.73Z" fill="#2E2A33"/>
<path d="M667.6 108.57L665.22 134.03C665.13 134.99 665.78 135.86 666.73 136.04L695.93 141.62C697 141.83 698.02 141.07 698.14 139.99L700.81 115.79C700.91 114.85 700.3 113.98 699.37 113.76L669.88 106.92C668.78 106.66 667.71 107.44 667.6 108.57Z" fill="#AFAFAF"/>
<path d="M669.22 109.02L666.84 134.48C666.75 135.44 667.4 136.31 668.35 136.49L697.55 142.07C698.62 142.27 699.64 141.52 699.76 140.44L702.43 116.24C702.53 115.3 701.92 114.43 700.99 114.21L671.5 107.37C670.41 107.11 669.33 107.89 669.22 109.02Z" fill="#D1D1D1"/>
<path d="M684.42 135.01C687.32 135.87 688.98 138.92 688.12 141.82C687.26 144.72 684.21 146.38 681.31 145.53C678.41 144.67 676.75 141.62 677.6 138.72C678.47 135.81 681.51 134.15 684.42 135.01Z" fill="#FCC9A7"/>
<path d="M688.33 139.85C688.31 139.62 687.37 124.36 687.37 124.36L682.18 125.3L682.87 138.31L688.33 139.85Z" fill="#FCC9A7"/>
<path d="M679.34 65.11C679.34 65.11 687.2 70.74 687.7 78.76L690.16 97.51C690.3 98.61 690.36 99.71 690.32 100.82L689.37 129.34H678.58L678.38 98.47L679.34 65.11Z" fill="#54585A"/>
<path d="M661.78 58.3C660.94 58.91 656.89 61.19 656.89 61.19C656.89 61.19 657 66.89 665.58 66.43C673.13 66.03 673.08 61.4 673.08 61.4L667.87 58.3H661.78Z" fill="#FCC9A7"/>
<path d="M631.5 86.51L646.18 109.97L639.22 116.56L619.44 93.47L631.5 86.51Z" fill="#54585A"/>
<path d="M678.37 108.96V98.46L675.93 79.31" stroke="#424647" stroke-width="0.7693" stroke-miterlimit="10" stroke-linecap="round" stroke-linejoin="round"/>
</svg>
